<?xml version="1.0" encoding="UTF-8" standalone="no"?>
<svg
   class="svglite"
   width="432.00pt"
   height="360.00pt"
   viewBox="0 0 432.00 360.00"
   version="1.1"
   id="svg160"
   sodipodi:docname="offtargets_venn_diagram.svg"
   inkscape:version="1.1.2 (0a00cf5339, 2022-02-04)"
   inkscape:export-filename="/home/ai/chopoff-benchmark/offtargets_venn_diagram.png"
   inkscape:export-xdpi="400"
   inkscape:export-ydpi="400"
   xmlns:inkscape="http://www.inkscape.org/namespaces/inkscape"
   xmlns:sodipodi="http://sodipodi.sourceforge.net/DTD/sodipodi-0.dtd"
   xmlns="http://www.w3.org/2000/svg"
   xmlns:svg="http://www.w3.org/2000/svg">
  <sodipodi:namedview
     id="namedview162"
     pagecolor="#ffffff"
     bordercolor="#cccccc"
     borderopacity="1"
     inkscape:pageshadow="0"
     inkscape:pageopacity="1"
     inkscape:pagecheckerboard="0"
     inkscape:document-units="pt"
     showgrid="false"
     showguides="true"
     inkscape:guide-bbox="true"
     inkscape:zoom="1.4979167"
     inkscape:cx="287.73296"
     inkscape:cy="240"
     inkscape:window-width="1850"
     inkscape:window-height="1136"
     inkscape:window-x="0"
     inkscape:window-y="0"
     inkscape:window-maximized="1"
     inkscape:current-layer="g156">
    <sodipodi:guide
       position="244.33936,292.90682"
       orientation="0,-1"
       id="guide164" />
  </sodipodi:namedview>
  <defs
     id="defs4">
    <style
       type="text/css"
       id="style2"><![CDATA[
    .svglite line, .svglite polyline, .svglite polygon, .svglite path, .svglite rect, .svglite circle {
      fill: none;
      stroke: #000000;
      stroke-linecap: round;
      stroke-linejoin: round;
      stroke-miterlimit: 10.00;
    }
    .svglite text {
      white-space: pre;
    }
  ]]></style>
  </defs>
  <rect
     width="100%"
     height="100%"
     style="stroke: none; fill: none;"
     id="rect6" />
  <defs
     id="defs11">
    <clipPath
       id="cpMC4wMHw0MzIuMDB8MC4wMHwzNjAuMDA=">
      <rect
         x="0.00"
         y="0.00"
         width="432.00"
         height="360.00"
         id="rect8" />
    </clipPath>
  </defs>
  <g
     clip-path="url(#cpMC4wMHw0MzIuMDB8MC4wMHwzNjAuMDA=)"
     id="g13" />
  <defs
     id="defs18">
    <clipPath
       id="cpMC4wMHw0MzIuMDB8MTIuNDF8MzQ3LjU5">
      <rect
         x="0.00"
         y="12.41"
         width="432.00"
         height="335.17"
         id="rect15" />
    </clipPath>
  </defs>
  <g
     clip-path="url(#cpMC4wMHw0MzIuMDB8MTIuNDF8MzQ3LjU5)"
     id="g156">
    <polygon
       points="36.57,91.98 40.80,88.19 45.45,84.86 50.51,82.00 55.96,79.61 61.77,77.72 67.92,76.33 74.39,75.43 81.15,75.04 88.17,75.17 94.52,75.71 94.53,77.86 95.04,83.72 96.02,89.89 97.48,96.32 99.40,103.00 101.79,109.89 104.62,116.98 107.90,124.24 111.60,131.63 115.71,139.12 120.22,146.69 125.11,154.31 128.45,159.17 127.83,160.08 123.30,167.35 119.13,174.57 115.35,181.74 111.97,188.81 108.99,195.76 106.44,202.57 104.32,209.20 102.64,215.63 101.41,221.84 100.63,227.80 100.31,233.48 100.44,238.87 101.03,243.94 102.07,248.67 103.56,253.05 105.50,257.06 107.87,260.68 110.67,263.89 113.88,266.69 117.50,269.06 121.50,271.00 125.88,272.49 130.62,273.53 135.69,274.12 141.08,274.25 146.76,273.93 152.72,273.15 155.16,272.66 155.45,277.60 156.34,284.07 157.73,290.22 159.63,296.03 162.01,301.47 164.87,306.53 168.21,311.19 171.99,315.41 176.22,319.20 180.88,322.53 185.93,325.40 191.38,327.78 197.19,329.67 203.34,331.07 209.81,331.96 216.00,332.32 215.43,332.35 208.41,332.23 201.15,331.60 193.68,330.47 186.03,328.84 178.23,326.71 170.31,324.10 162.31,321.01 154.25,317.46 146.17,313.46 138.09,309.03 130.06,304.18 122.10,298.93 114.24,293.31 106.52,287.34 98.96,281.03 91.59,274.42 84.45,267.54 77.56,260.40 70.95,253.03 64.65,245.47 58.67,237.75 53.05,229.89 47.81,221.93 42.96,213.89 38.53,205.82 34.53,197.74 30.98,189.68 27.89,181.67 25.28,173.76 23.15,165.96 21.52,158.31 20.38,150.84 19.76,143.58 19.64,136.55 20.02,129.79 20.92,123.33 22.31,117.18 24.21,111.37 26.59,105.92 29.45,100.86 32.78,96.21 36.57,91.98 "
       style="stroke-width: 1.07; stroke: none; stroke-linecap: butt; fill: #FFFFFF;"
       id="polygon20" />
    <polygon
       points="102.90,76.93 110.55,78.56 118.35,80.69 126.27,83.30 134.27,86.39 142.33,89.94 150.41,93.94 158.49,98.37 166.52,103.22 172.05,106.86 168.12,110.68 161.60,117.39 155.30,124.26 149.23,131.26 143.43,138.38 137.91,145.57 132.71,152.82 128.45,159.17 125.11,154.31 120.22,146.69 115.71,139.12 111.60,131.63 107.90,124.24 104.62,116.98 101.79,109.89 99.40,103.00 97.48,96.32 96.02,89.89 95.04,83.72 94.53,77.86 94.52,75.71 95.43,75.79 102.90,76.93 "
       style="stroke-width: 1.07; stroke: none; stroke-linecap: butt; fill: #FFEDF6;"
       id="polygon22" />
    <polygon
       points="182.34,114.08 190.06,120.06 197.62,126.36 204.99,132.97 212.13,139.86 216.00,143.87 212.98,147.00 206.37,154.36 200.07,161.92 194.10,169.65 188.47,177.51 183.23,185.47 178.38,193.50 173.95,201.58 170.43,208.68 168.12,206.44 161.20,199.33 154.50,192.06 148.04,184.65 141.84,177.15 135.94,169.57 130.36,161.95 128.45,159.17 132.71,152.82 137.91,145.57 143.43,138.38 149.23,131.26 155.30,124.26 161.60,117.39 168.12,110.68 172.05,106.86 174.48,108.46 182.34,114.08 "
       style="stroke-width: 1.07; stroke: none; stroke-linecap: butt; fill: #FFD1E9;"
       id="polygon24" />
    <polygon
       points="219.02,147.00 225.63,154.36 231.93,161.92 237.90,169.65 243.53,177.51 248.77,185.47 253.62,193.50 258.05,201.58 261.57,208.68 257.17,212.96 250.30,219.26 243.29,225.33 236.18,231.13 228.99,236.64 221.74,241.85 215.39,246.11 212.61,244.20 204.99,238.62 197.41,232.71 189.90,226.52 182.50,220.06 175.23,213.36 170.43,208.68 173.95,201.58 178.38,193.50 183.23,185.47 188.47,177.51 194.10,169.65 200.07,161.92 206.37,154.36 212.98,147.00 216.00,143.87 219.02,147.00 "
       style="stroke-width: 1.07; stroke: none; stroke-linecap: butt; fill: #FFA6D5;"
       id="polygon26" />
    <polygon
       points="262.05,209.66 265.60,217.72 268.69,225.72 271.30,233.64 273.43,241.44 275.06,249.09 276.19,256.56 276.82,263.82 276.94,270.84 276.61,276.61 271.56,275.16 264.66,272.77 257.57,269.93 250.32,266.66 242.93,262.96 235.44,258.84 227.86,254.33 220.24,249.45 215.39,246.11 221.74,241.85 228.99,236.64 236.18,231.13 243.29,225.33 250.30,219.26 257.17,212.96 261.57,208.68 262.05,209.66 "
       style="stroke-width: 1.07; stroke: none; stroke-linecap: butt; fill: #FFFFFF;"
       id="polygon28" />
    <polygon
       points="152.72,273.15 146.76,273.93 141.08,274.25 135.69,274.12 130.62,273.53 125.88,272.49 121.50,271.00 117.50,269.06 113.88,266.69 110.67,263.89 107.87,260.68 105.50,257.06 103.56,253.05 102.07,248.67 101.03,243.94 100.44,238.87 100.31,233.48 100.63,227.80 101.41,221.84 102.64,215.63 104.32,209.20 106.44,202.57 108.99,195.76 111.97,188.81 115.35,181.74 119.13,174.57 123.30,167.35 127.83,160.08 128.45,159.17 130.36,161.95 135.94,169.57 141.84,177.15 148.04,184.65 154.50,192.06 161.20,199.33 168.12,206.44 170.43,208.68 169.95,209.66 166.40,217.72 163.31,225.72 160.70,233.64 158.57,241.44 156.94,249.09 155.81,256.56 155.18,263.82 155.06,270.84 155.16,272.66 152.72,273.15 "
       style="stroke-width: 1.07; stroke: none; stroke-linecap: butt; fill: #FFFFFF;"
       id="polygon30" />
    <polygon
       points="214.47,246.73 207.21,251.26 199.98,255.42 192.82,259.21 185.75,262.59 178.80,265.56 171.99,268.12 165.36,270.24 158.93,271.92 155.16,272.66 155.06,270.84 155.18,263.82 155.81,256.56 156.94,249.09 158.57,241.44 160.70,233.64 163.31,225.72 166.40,217.72 169.95,209.66 170.43,208.68 175.23,213.36 182.50,220.06 189.90,226.52 197.41,232.71 204.99,238.62 212.61,244.20 215.39,246.11 214.47,246.73 "
       style="stroke-width: 1.07; stroke: none; stroke-linecap: butt; fill: #FFFFFF;"
       id="polygon32" />
    <polygon
       points="276.55,277.60 275.66,284.07 274.27,290.22 272.37,296.03 269.99,301.47 267.13,306.53 263.79,311.19 260.01,315.41 255.78,319.20 251.12,322.53 246.07,325.40 240.62,327.78 234.81,329.67 228.66,331.07 222.19,331.96 216.00,332.32 209.81,331.96 203.34,331.07 197.19,329.67 191.38,327.78 185.93,325.40 180.88,322.53 176.22,319.20 171.99,315.41 168.21,311.19 164.87,306.53 162.01,301.47 159.63,296.03 157.73,290.22 156.34,284.07 155.45,277.60 155.16,272.66 158.93,271.92 165.36,270.24 171.99,268.12 178.80,265.56 185.75,262.59 192.82,259.21 199.98,255.42 207.21,251.26 214.47,246.73 215.39,246.11 220.24,249.45 227.86,254.33 235.44,258.84 242.93,262.96 250.32,266.66 257.57,269.93 264.66,272.77 271.56,275.16 276.61,276.61 276.55,277.60 "
       style="stroke-width: 1.07; stroke: none; stroke-linecap: butt; fill: #FFFFFF;"
       id="polygon34" />
    <polygon
       points="104.28,46.84 107.51,44.05 111.16,41.72 115.23,39.85 119.70,38.44 124.55,37.51 129.75,37.06 135.30,37.09 141.17,37.59 147.33,38.58 153.76,40.03 160.44,41.96 167.34,44.34 174.43,47.18 181.68,50.45 189.07,54.16 196.56,58.27 204.14,62.78 211.76,67.67 216.61,71.00 210.26,75.26 203.01,80.47 195.82,85.99 188.71,91.79 181.70,97.85 174.83,104.16 172.05,106.86 166.52,103.22 158.49,98.37 150.41,93.94 142.33,89.94 134.27,86.39 126.27,83.30 118.35,80.69 110.55,78.56 102.90,76.93 95.43,75.79 94.52,75.71 94.50,72.31 94.96,67.10 95.89,62.26 97.29,57.79 99.16,53.72 101.50,50.07 104.28,46.84 "
       style="stroke-width: 1.07; stroke: none; stroke-linecap: butt; fill: #FFFFFF;"
       id="polygon36" />
    <polygon
       points="174.83,104.16 181.70,97.85 188.71,91.79 195.82,85.99 203.01,80.47 210.26,75.26 216.61,71.00 219.39,72.91 227.01,78.50 234.59,84.40 242.10,90.59 249.50,97.05 256.77,103.76 259.95,106.86 257.52,108.46 249.66,114.08 241.94,120.06 234.38,126.36 227.01,132.97 219.87,139.86 216.00,143.87 212.13,139.86 204.99,132.97 197.62,126.36 190.06,120.06 182.34,114.08 174.48,108.46 172.05,106.86 174.83,104.16 "
       style="stroke-width: 1.07; stroke: none; stroke-linecap: butt; fill: #FFFFFF;"
       id="polygon38" />
    <polygon
       points="219.87,139.86 227.01,132.97 234.38,126.36 241.94,120.06 249.66,114.08 257.52,108.46 259.95,106.86 263.88,110.68 270.80,117.79 277.50,125.06 283.96,132.46 290.16,139.97 296.06,147.54 301.64,155.17 303.55,157.95 299.29,164.30 294.09,171.54 288.57,178.74 282.77,185.85 276.70,192.86 270.40,199.73 263.88,206.44 261.57,208.68 258.05,201.58 253.62,193.50 248.77,185.47 243.53,177.51 237.90,169.65 231.93,161.92 225.63,154.36 219.02,147.00 216.00,143.87 219.87,139.86 "
       style="stroke-width: 1.07; stroke: none; stroke-linecap: butt; fill: #FFFFFF;"
       id="polygon40" />
    <polygon
       points="306.89,162.80 311.78,170.42 316.29,177.99 320.40,185.49 324.10,192.88 327.38,200.13 330.21,207.22 332.60,214.12 334.52,220.80 335.98,227.23 336.96,233.39 337.47,239.26 337.50,244.80 337.04,250.01 336.11,254.86 334.71,259.32 332.84,263.39 330.50,267.05 327.72,270.27 324.49,273.06 320.84,275.39 316.77,277.27 312.30,278.67 307.45,279.60 302.25,280.05 296.70,280.03 290.83,279.52 284.67,278.54 278.24,277.08 276.61,276.61 276.94,270.84 276.82,263.82 276.19,256.56 275.06,249.09 273.43,241.44 271.30,233.64 268.69,225.72 265.60,217.72 262.05,209.66 261.57,208.68 263.88,206.44 270.40,199.73 276.70,192.86 282.77,185.85 288.57,178.74 294.09,171.54 299.29,164.30 303.55,157.95 306.89,162.80 "
       style="stroke-width: 1.07; stroke: none; stroke-linecap: butt; fill: #FFFFFF;"
       id="polygon42" />
    <polygon
       points="321.33,53.22 324.13,56.44 326.50,60.06 328.44,64.06 329.93,68.44 330.97,73.17 331.37,76.58 329.10,76.93 321.45,78.56 313.65,80.69 305.73,83.30 297.73,86.39 289.67,89.94 281.59,93.94 273.51,98.37 265.48,103.22 259.95,106.86 256.77,103.76 249.50,97.05 242.10,90.59 234.59,84.40 227.01,78.50 219.39,72.91 216.61,71.00 217.53,70.39 224.79,65.86 232.02,61.69 239.18,57.91 246.25,54.52 253.20,51.55 260.01,49.00 266.64,46.88 273.07,45.20 279.28,43.97 285.24,43.19 290.92,42.86 296.31,43.00 301.38,43.58 306.12,44.63 310.50,46.12 314.50,48.05 318.12,50.43 321.33,53.22 "
       style="stroke-width: 1.07; stroke: none; stroke-linecap: butt; fill: #FFFFFF;"
       id="polygon44" />
    <polygon
       points="331.69,83.63 331.37,89.32 330.59,95.28 329.36,101.48 327.68,107.92 325.56,114.55 323.01,121.35 320.03,128.31 316.65,135.38 312.87,142.54 308.70,149.77 304.17,157.03 303.55,157.95 301.64,155.17 296.06,147.54 290.16,139.97 283.96,132.46 277.50,125.06 270.80,117.79 263.88,110.68 259.95,106.86 265.48,103.22 273.51,98.37 281.59,93.94 289.67,89.94 297.73,86.39 305.73,83.30 313.65,80.69 321.45,78.56 329.10,76.93 331.37,76.58 331.56,78.25 331.69,83.63 "
       style="stroke-width: 1.07; stroke: none; stroke-linecap: butt; fill: #FFFFFF;"
       id="polygon46" />
    <polygon
       points="395.43,91.98 399.22,96.21 402.55,100.86 405.41,105.92 407.79,111.37 409.69,117.18 411.08,123.33 411.98,129.79 412.36,136.55 412.24,143.58 411.62,150.84 410.48,158.31 408.85,165.96 406.72,173.76 404.11,181.67 401.02,189.68 397.47,197.74 393.47,205.82 389.04,213.89 384.19,221.93 378.95,229.89 373.33,237.75 367.35,245.47 361.05,253.03 354.44,260.40 347.55,267.54 340.41,274.42 333.04,281.03 325.48,287.34 317.76,293.31 309.90,298.93 301.94,304.18 293.91,309.03 285.83,313.46 277.75,317.46 269.69,321.01 261.69,324.10 253.77,326.71 245.97,328.84 238.32,330.47 230.85,331.60 223.59,332.23 216.57,332.35 216.00,332.32 222.19,331.96 228.66,331.07 234.81,329.67 240.62,327.78 246.07,325.40 251.12,322.53 255.78,319.20 260.01,315.41 263.79,311.19 267.13,306.53 269.99,301.47 272.37,296.03 274.27,290.22 275.66,284.07 276.55,277.60 276.61,276.61 278.24,277.08 284.67,278.54 290.83,279.52 296.70,280.03 302.25,280.05 307.45,279.60 312.30,278.67 316.77,277.27 320.84,275.39 324.49,273.06 327.72,270.27 330.50,267.05 332.84,263.39 334.71,259.32 336.11,254.86 337.04,250.01 337.50,244.80 337.47,239.26 336.96,233.39 335.98,227.23 334.52,220.80 332.60,214.12 330.21,207.22 327.38,200.13 324.10,192.88 320.40,185.49 316.29,177.99 311.78,170.42 306.89,162.80 303.55,157.95 304.17,157.03 308.70,149.77 312.87,142.54 316.65,135.38 320.03,128.31 323.01,121.35 325.56,114.55 327.68,107.92 329.36,101.48 330.59,95.28 331.37,89.32 331.69,83.63 331.56,78.25 331.37,76.58 336.57,75.79 343.83,75.17 350.85,75.04 357.61,75.43 364.08,76.33 370.23,77.72 376.04,79.61 381.49,82.00 386.55,84.86 391.20,88.19 395.43,91.98 "
       style="stroke-width: 1.07; stroke: none; stroke-linecap: butt; fill: #FFFFFF;"
       id="polygon48" />
    <polyline
       points="36.57,91.98 32.78,96.21 29.45,100.86 26.59,105.92 24.21,111.37 22.31,117.18 20.92,123.33 20.02,129.79 19.64,136.55 19.76,143.58 20.38,150.84 21.52,158.31 23.15,165.96 25.28,173.76 27.89,181.67 30.98,189.68 34.53,197.74 38.53,205.82 42.96,213.89 47.81,221.93 53.05,229.89 58.67,237.75 64.65,245.47 70.95,253.03 77.56,260.40 84.45,267.54 91.59,274.42 98.96,281.03 106.52,287.34 114.24,293.31 122.10,298.93 130.06,304.18 138.09,309.03 146.17,313.46 154.25,317.46 162.31,321.01 170.31,324.10 178.23,326.71 186.03,328.84 193.68,330.47 201.15,331.60 208.41,332.23 215.43,332.35 222.19,331.96 228.66,331.07 234.81,329.67 240.62,327.78 246.07,325.40 251.12,322.53 255.78,319.20 260.01,315.41 263.79,311.19 267.13,306.53 269.99,301.47 272.37,296.03 274.27,290.22 275.66,284.07 276.55,277.60 276.94,270.84 276.82,263.82 276.19,256.56 275.06,249.09 273.43,241.44 271.30,233.64 268.69,225.72 265.60,217.72 262.05,209.66 258.05,201.58 253.62,193.50 248.77,185.47 243.53,177.51 237.90,169.65 231.93,161.92 225.63,154.36 219.02,147.00 212.13,139.86 204.99,132.97 197.62,126.36 190.06,120.06 182.34,114.08 174.48,108.46 166.52,103.22 158.49,98.37 150.41,93.94 142.33,89.94 134.27,86.39 126.27,83.30 118.35,80.69 110.55,78.56 102.90,76.93 95.43,75.79 88.17,75.17 81.15,75.04 74.39,75.43 67.92,76.33 61.77,77.72 55.96,79.61 50.51,82.00 45.45,84.86 40.80,88.19 36.57,91.98 "
       style="stroke-width: 2.13; stroke-linecap: butt;"
       id="polyline50" />
    <polyline
       points="104.28,46.84 101.50,50.07 99.16,53.72 97.29,57.79 95.89,62.26 94.96,67.10 94.50,72.31 94.53,77.86 95.04,83.72 96.02,89.89 97.48,96.32 99.40,103.00 101.79,109.89 104.62,116.98 107.90,124.24 111.60,131.63 115.71,139.12 120.22,146.69 125.11,154.31 130.36,161.95 135.94,169.57 141.84,177.15 148.04,184.65 154.50,192.06 161.20,199.33 168.12,206.44 175.23,213.36 182.50,220.06 189.90,226.52 197.41,232.71 204.99,238.62 212.61,244.20 220.24,249.45 227.86,254.33 235.44,258.84 242.93,262.96 250.32,266.66 257.57,269.93 264.66,272.77 271.56,275.16 278.24,277.08 284.67,278.54 290.83,279.52 296.70,280.03 302.25,280.05 307.45,279.60 312.30,278.67 316.77,277.27 320.84,275.39 324.49,273.06 327.72,270.27 330.50,267.05 332.84,263.39 334.71,259.32 336.11,254.86 337.04,250.01 337.50,244.80 337.47,239.26 336.96,233.39 335.98,227.23 334.52,220.80 332.60,214.12 330.21,207.22 327.38,200.13 324.10,192.88 320.40,185.49 316.29,177.99 311.78,170.42 306.89,162.80 301.64,155.17 296.06,147.54 290.16,139.97 283.96,132.46 277.50,125.06 270.80,117.79 263.88,110.68 256.77,103.76 249.50,97.05 242.10,90.59 234.59,84.40 227.01,78.50 219.39,72.91 211.76,67.67 204.14,62.78 196.56,58.27 189.07,54.16 181.68,50.45 174.43,47.18 167.34,44.34 160.44,41.96 153.76,40.03 147.33,38.58 141.17,37.59 135.30,37.09 129.75,37.06 124.55,37.51 119.70,38.44 115.23,39.85 111.16,41.72 107.51,44.05 104.28,46.84 "
       style="stroke-width: 2.13; stroke-linecap: butt;"
       id="polyline52" />
    <polyline
       points="321.33,53.22 318.12,50.43 314.50,48.05 310.50,46.12 306.12,44.63 301.38,43.58 296.31,43.00 290.92,42.86 285.24,43.19 279.28,43.97 273.07,45.20 266.64,46.88 260.01,49.00 253.20,51.55 246.25,54.52 239.18,57.91 232.02,61.69 224.79,65.86 217.53,70.39 210.26,75.26 203.01,80.47 195.82,85.99 188.71,91.79 181.70,97.85 174.83,104.16 168.12,110.68 161.60,117.39 155.30,124.26 149.23,131.26 143.43,138.38 137.91,145.57 132.71,152.82 127.83,160.08 123.30,167.35 119.13,174.57 115.35,181.74 111.97,188.81 108.99,195.76 106.44,202.57 104.32,209.20 102.64,215.63 101.41,221.84 100.63,227.80 100.31,233.48 100.44,238.87 101.03,243.94 102.07,248.67 103.56,253.05 105.50,257.06 107.87,260.68 110.67,263.89 113.88,266.69 117.50,269.06 121.50,271.00 125.88,272.49 130.62,273.53 135.69,274.12 141.08,274.25 146.76,273.93 152.72,273.15 158.93,271.92 165.36,270.24 171.99,268.12 178.80,265.56 185.75,262.59 192.82,259.21 199.98,255.42 207.21,251.26 214.47,246.73 221.74,241.85 228.99,236.64 236.18,231.13 243.29,225.33 250.30,219.26 257.17,212.96 263.88,206.44 270.40,199.73 276.70,192.86 282.77,185.85 288.57,178.74 294.09,171.54 299.29,164.30 304.17,157.03 308.70,149.77 312.87,142.54 316.65,135.38 320.03,128.31 323.01,121.35 325.56,114.55 327.68,107.92 329.36,101.48 330.59,95.28 331.37,89.32 331.69,83.63 331.56,78.25 330.97,73.17 329.93,68.44 328.44,64.06 326.50,60.06 324.13,56.44 321.33,53.22 "
       style="stroke-width: 2.13; stroke-linecap: butt;"
       id="polyline54" />
    <polyline
       points="395.43,91.98 391.20,88.19 386.55,84.86 381.49,82.00 376.04,79.61 370.23,77.72 364.08,76.33 357.61,75.43 350.85,75.04 343.83,75.17 336.57,75.79 329.10,76.93 321.45,78.56 313.65,80.69 305.73,83.30 297.73,86.39 289.67,89.94 281.59,93.94 273.51,98.37 265.48,103.22 257.52,108.46 249.66,114.08 241.94,120.06 234.38,126.36 227.01,132.97 219.87,139.86 212.98,147.00 206.37,154.36 200.07,161.92 194.10,169.65 188.47,177.51 183.23,185.47 178.38,193.50 173.95,201.58 169.95,209.66 166.40,217.72 163.31,225.72 160.70,233.64 158.57,241.44 156.94,249.09 155.81,256.56 155.18,263.82 155.06,270.84 155.45,277.60 156.34,284.07 157.73,290.22 159.63,296.03 162.01,301.47 164.87,306.53 168.21,311.19 171.99,315.41 176.22,319.20 180.88,322.53 185.93,325.40 191.38,327.78 197.19,329.67 203.34,331.07 209.81,331.96 216.57,332.35 223.59,332.23 230.85,331.60 238.32,330.47 245.97,328.84 253.77,326.71 261.69,324.10 269.69,321.01 277.75,317.46 285.83,313.46 293.91,309.03 301.94,304.18 309.90,298.93 317.76,293.31 325.48,287.34 333.04,281.03 340.41,274.42 347.55,267.54 354.44,260.40 361.05,253.03 367.35,245.47 373.33,237.75 378.95,229.89 384.19,221.93 389.04,213.89 393.47,205.82 397.47,197.74 401.02,189.68 404.11,181.67 406.72,173.76 408.85,165.96 410.48,158.31 411.62,150.84 412.24,143.58 412.36,136.55 411.98,129.79 411.08,123.33 409.69,117.18 407.79,111.37 405.41,105.92 402.55,100.86 399.22,96.21 395.43,91.98 "
       style="stroke-width: 2.13; stroke-linecap: butt;"
       id="polyline56" />
    <text
       x="26.41"
       y="68.139999"
       text-anchor="middle"
       style="font-size:12px;font-family:Arial"
       textLength="57.349998"
       lengthAdjust="spacingAndGlyphs"
       id="text58"
       transform="translate(3.2114917)">CHOPOFF</text>
    <text
       x="107.66"
       y="32.02"
       text-anchor="middle"
       style="font-size: 12.00px; font-family: &quot;Arial&quot;;"
       textLength="68.26px"
       lengthAdjust="spacingAndGlyphs"
       id="text60">SWOffinder</text>
    <text
       x="310.80"
       y="36.54"
       text-anchor="middle"
       style="font-size: 12.00px; font-family: &quot;Arial&quot;;"
       textLength="57.79px"
       lengthAdjust="spacingAndGlyphs"
       id="text62">CRISPRitz</text>
    <text
       x="410.10001"
       y="68.139999"
       text-anchor="middle"
       style="font-size:12px;font-family:Arial"
       textLength="79.93"
       lengthAdjust="spacingAndGlyphs"
       id="text64"
       transform="translate(-18.77021,-1.6878912)">Cas-OFFinder</text>
    <polygon
       points="65.14,195.63 96.42,195.63 96.34,195.63 96.69,195.62 97.03,195.55 97.35,195.42 97.65,195.25 97.92,195.03 98.15,194.77 98.34,194.48 98.47,194.16 98.56,193.82 98.58,193.47 98.58,193.47 98.58,169.60 98.58,169.60 98.56,169.26 98.47,168.92 98.34,168.60 98.15,168.31 97.92,168.05 97.65,167.83 97.35,167.65 97.03,167.53 96.69,167.46 96.42,167.44 65.14,167.44 65.40,167.46 65.05,167.45 64.71,167.49 64.37,167.58 64.06,167.73 63.77,167.93 63.52,168.17 63.32,168.45 63.15,168.76 63.04,169.09 62.99,169.43 62.98,169.60 62.98,193.47 62.99,193.30 62.99,193.65 63.04,193.99 63.15,194.32 63.32,194.63 63.52,194.90 63.77,195.15 64.06,195.34 64.37,195.49 64.71,195.59 65.05,195.63 "
       style="stroke-width: nan; stroke: none; fill: #FFFFFF; fill-opacity: 0.50;"
       id="polygon66" />
    <text
       x="80.78"
       y="179.79"
       text-anchor="middle"
       style="font-size: 12.00px; font-family: &quot;Arial&quot;;"
       textLength="7.64px"
       lengthAdjust="spacingAndGlyphs"
       id="text68">0</text>
    <text
       x="80.78"
       y="192.03"
       text-anchor="middle"
       style="font-size: 12.00px; font-family: &quot;Arial&quot;;"
       textLength="28.40px"
       lengthAdjust="spacingAndGlyphs"
       id="text70">(0%)</text>
    <polygon
       points="136.43,81.75 167.71,81.75 167.63,81.74 167.98,81.73 168.32,81.66 168.64,81.54 168.94,81.36 169.21,81.14 169.44,80.88 169.63,80.59 169.76,80.27 169.85,79.93 169.87,79.59 169.87,79.59 169.87,55.72 169.87,55.72 169.85,55.37 169.76,55.03 169.63,54.71 169.44,54.42 169.21,54.16 168.94,53.94 168.64,53.77 168.32,53.64 167.98,53.57 167.71,53.56 136.43,53.56 136.69,53.57 136.34,53.56 136.00,53.60 135.66,53.70 135.35,53.85 135.06,54.04 134.81,54.28 134.61,54.56 134.44,54.87 134.33,55.20 134.28,55.54 134.27,55.72 134.27,79.59 134.28,79.41 134.28,79.76 134.33,80.10 134.44,80.43 134.61,80.74 134.81,81.02 135.06,81.26 135.35,81.46 135.66,81.60 136.00,81.70 136.34,81.74 "
       style="stroke-width: nan; stroke: none; fill: #FFFFFF; fill-opacity: 0.50;"
       id="polygon72" />
    <text
       x="152.07"
       y="65.91"
       text-anchor="middle"
       style="font-size: 12.00px; font-family: &quot;Arial&quot;;"
       textLength="7.64px"
       lengthAdjust="spacingAndGlyphs"
       id="text74">0</text>
    <text
       x="152.07"
       y="78.15"
       text-anchor="middle"
       style="font-size: 12.00px; font-family: &quot;Arial&quot;;"
       textLength="28.40px"
       lengthAdjust="spacingAndGlyphs"
       id="text76">(0%)</text>
    <polygon
       points="260.57,84.54 291.86,84.54 291.77,84.53 292.12,84.52 292.46,84.45 292.78,84.33 293.08,84.15 293.35,83.93 293.58,83.67 293.77,83.38 293.91,83.06 293.99,82.72 294.02,82.38 294.02,82.38 294.02,58.51 294.02,58.51 293.99,58.16 293.91,57.82 293.77,57.50 293.58,57.21 293.35,56.95 293.08,56.73 292.78,56.56 292.46,56.43 292.12,56.36 291.86,56.35 260.57,56.35 260.83,56.36 260.49,56.35 260.14,56.39 259.81,56.49 259.49,56.64 259.21,56.83 258.96,57.08 258.75,57.35 258.59,57.66 258.48,57.99 258.42,58.33 258.41,58.51 258.41,82.38 258.42,82.20 258.42,82.55 258.48,82.89 258.59,83.22 258.75,83.53 258.96,83.81 259.21,84.05 259.49,84.25 259.81,84.40 260.14,84.49 260.49,84.53 "
       style="stroke-width: nan; stroke: none; fill: #FFFFFF; fill-opacity: 0.50;"
       id="polygon78" />
    <text
       x="276.22"
       y="68.70"
       text-anchor="middle"
       style="font-size: 12.00px; font-family: &quot;Arial&quot;;"
       textLength="7.64px"
       lengthAdjust="spacingAndGlyphs"
       id="text80">0</text>
    <text
       x="276.22"
       y="80.94"
       text-anchor="middle"
       style="font-size: 12.00px; font-family: &quot;Arial&quot;;"
       textLength="28.40px"
       lengthAdjust="spacingAndGlyphs"
       id="text82">(0%)</text>
    <polygon
       points="336.90,190.76 368.19,190.76 368.10,190.76 368.45,190.75 368.79,190.68 369.11,190.55 369.41,190.38 369.68,190.16 369.91,189.90 370.10,189.61 370.23,189.29 370.32,188.95 370.35,188.60 370.35,188.60 370.35,164.73 370.35,164.73 370.32,164.39 370.23,164.05 370.10,163.73 369.91,163.44 369.68,163.18 369.41,162.96 369.11,162.78 368.79,162.66 368.45,162.59 368.19,162.57 336.90,162.57 337.16,162.59 336.81,162.58 336.47,162.62 336.14,162.71 335.82,162.86 335.54,163.06 335.28,163.30 335.08,163.58 334.91,163.89 334.80,164.22 334.75,164.56 334.74,164.73 334.74,188.60 334.75,188.43 334.75,188.78 334.80,189.12 334.91,189.45 335.08,189.76 335.28,190.03 335.54,190.28 335.82,190.47 336.14,190.62 336.47,190.72 336.81,190.76 "
       style="stroke-width: nan; stroke: none; fill: #FFFFFF; fill-opacity: 0.50;"
       id="polygon84" />
    <text
       x="352.54"
       y="174.92"
       text-anchor="middle"
       style="font-size: 12.00px; font-family: &quot;Arial&quot;;"
       textLength="7.64px"
       lengthAdjust="spacingAndGlyphs"
       id="text86">0</text>
    <text
       x="352.54"
       y="187.16"
       text-anchor="middle"
       style="font-size: 12.00px; font-family: &quot;Arial&quot;;"
       textLength="28.40px"
       lengthAdjust="spacingAndGlyphs"
       id="text88">(0%)</text>
    <polygon
       points="109.18,125.70 148.10,125.70 148.02,125.69 148.36,125.68 148.70,125.61 149.03,125.49 149.33,125.31 149.60,125.09 149.83,124.83 150.01,124.54 150.15,124.22 150.23,123.88 150.26,123.54 150.26,123.54 150.26,99.67 150.26,99.67 150.23,99.32 150.15,98.98 150.01,98.66 149.83,98.37 149.60,98.11 149.33,97.89 149.03,97.72 148.70,97.59 148.36,97.52 148.10,97.51 109.18,97.51 109.44,97.52 109.09,97.51 108.75,97.55 108.41,97.65 108.10,97.80 107.81,97.99 107.56,98.24 107.35,98.51 107.19,98.82 107.08,99.15 107.03,99.49 107.02,99.67 107.02,123.54 107.03,123.36 107.03,123.71 107.08,124.05 107.19,124.38 107.35,124.69 107.56,124.97 107.81,125.21 108.10,125.41 108.41,125.56 108.75,125.65 109.09,125.69 "
       style="stroke-width: nan; stroke: none; fill: #FFFFFF; fill-opacity: 0.50;"
       id="polygon90" />
    <text
       x="128.64"
       y="109.86"
       text-anchor="middle"
       style="font-size: 12.00px; font-family: &quot;Arial&quot;;"
       textLength="30.56px"
       lengthAdjust="spacingAndGlyphs"
       id="text92">3058</text>
    <text
       x="128.64"
       y="122.10"
       text-anchor="middle"
       style="font-size: 12.00px; font-family: &quot;Arial&quot;;"
       textLength="36.04px"
       lengthAdjust="spacingAndGlyphs"
       id="text94">(12%)</text>
    <polygon
       points="116.90,237.83 148.19,237.83 148.10,237.83 148.45,237.81 148.79,237.74 149.11,237.62 149.41,237.45 149.68,237.23 149.91,236.97 150.10,236.67 150.24,236.35 150.32,236.01 150.35,235.67 150.35,235.67 150.35,211.80 150.35,211.80 150.32,211.45 150.24,211.12 150.10,210.80 149.91,210.50 149.68,210.24 149.41,210.02 149.11,209.85 148.79,209.73 148.45,209.66 148.19,209.64 116.90,209.64 117.16,209.66 116.82,209.64 116.47,209.68 116.14,209.78 115.82,209.93 115.54,210.13 115.29,210.37 115.08,210.65 114.92,210.95 114.81,211.28 114.75,211.63 114.74,211.80 114.74,235.67 114.75,235.49 114.75,235.84 114.81,236.18 114.92,236.51 115.08,236.82 115.29,237.10 115.54,237.34 115.82,237.54 116.14,237.69 116.47,237.78 116.82,237.83 "
       style="stroke-width: nan; stroke: none; fill: #FFFFFF; fill-opacity: 0.50;"
       id="polygon96" />
    <text
       x="132.55"
       y="221.99"
       text-anchor="middle"
       style="font-size: 12.00px; font-family: &quot;Arial&quot;;"
       textLength="7.64px"
       lengthAdjust="spacingAndGlyphs"
       id="text98">0</text>
    <text
       x="132.55"
       y="234.23"
       text-anchor="middle"
       style="font-size: 12.00px; font-family: &quot;Arial&quot;;"
       textLength="28.40px"
       lengthAdjust="spacingAndGlyphs"
       id="text100">(0%)</text>
    <polygon
       points="199.65,306.35 230.93,306.35 230.84,306.35 231.19,306.33 231.53,306.26 231.86,306.14 232.16,305.97 232.43,305.75 232.66,305.49 232.84,305.19 232.98,304.87 233.06,304.54 233.09,304.19 233.09,304.19 233.09,280.32 233.09,280.32 233.06,279.97 232.98,279.64 232.84,279.32 232.66,279.02 232.43,278.76 232.16,278.54 231.86,278.37 231.53,278.25 231.19,278.18 230.93,278.16 199.65,278.16 199.91,278.18 199.56,278.16 199.21,278.20 198.88,278.30 198.57,278.45 198.28,278.65 198.03,278.89 197.82,279.17 197.66,279.47 197.55,279.80 197.49,280.15 197.49,280.32 197.49,304.19 197.49,304.01 197.49,304.36 197.55,304.71 197.66,305.04 197.82,305.34 198.03,305.62 198.28,305.86 198.57,306.06 198.88,306.21 199.21,306.30 199.56,306.35 "
       style="stroke-width: nan; stroke: none; fill: #FFFFFF; fill-opacity: 0.50;"
       id="polygon102" />
    <text
       x="215.29"
       y="290.51"
       text-anchor="middle"
       style="font-size: 12.00px; font-family: &quot;Arial&quot;;"
       textLength="7.64px"
       lengthAdjust="spacingAndGlyphs"
       id="text104">0</text>
    <text
       x="215.29"
       y="302.75"
       text-anchor="middle"
       style="font-size: 12.00px; font-family: &quot;Arial&quot;;"
       textLength="28.40px"
       lengthAdjust="spacingAndGlyphs"
       id="text106">(0%)</text>
    <polygon
       points="200.41,120.12 231.70,120.12 231.61,120.11 231.96,120.10 232.30,120.03 232.62,119.91 232.92,119.73 233.19,119.51 233.42,119.25 233.61,118.96 233.75,118.64 233.83,118.30 233.86,117.96 233.86,117.96 233.86,94.09 233.86,94.09 233.83,93.74 233.75,93.40 233.61,93.08 233.42,92.79 233.19,92.53 232.92,92.31 232.62,92.14 232.30,92.01 231.96,91.94 231.70,91.93 200.41,91.93 200.67,91.94 200.33,91.93 199.98,91.97 199.65,92.07 199.33,92.22 199.05,92.41 198.80,92.65 198.59,92.93 198.43,93.24 198.32,93.57 198.26,93.91 198.25,94.09 198.25,117.96 198.26,117.78 198.26,118.13 198.32,118.47 198.43,118.80 198.59,119.11 198.80,119.39 199.05,119.63 199.33,119.83 199.65,119.97 199.98,120.07 200.33,120.11 "
       style="stroke-width: nan; stroke: none; fill: #FFFFFF; fill-opacity: 0.50;"
       id="polygon108" />
    <text
       x="216.05"
       y="104.28"
       text-anchor="middle"
       style="font-size: 12.00px; font-family: &quot;Arial&quot;;"
       textLength="7.64px"
       lengthAdjust="spacingAndGlyphs"
       id="text110">0</text>
    <text
       x="216.05"
       y="116.52"
       text-anchor="middle"
       style="font-size: 12.00px; font-family: &quot;Arial&quot;;"
       textLength="28.40px"
       lengthAdjust="spacingAndGlyphs"
       id="text112">(0%)</text>
    <polygon
       points="286.42,241.21 317.70,241.21 317.62,241.20 317.97,241.19 318.31,241.12 318.63,241.00 318.93,240.82 319.20,240.60 319.43,240.34 319.62,240.05 319.75,239.73 319.84,239.39 319.86,239.05 319.86,239.05 319.86,215.18 319.86,215.18 319.84,214.83 319.75,214.49 319.62,214.17 319.43,213.88 319.20,213.62 318.93,213.40 318.63,213.23 318.31,213.10 317.97,213.03 317.70,213.02 286.42,213.02 286.68,213.03 286.33,213.02 285.99,213.06 285.66,213.16 285.34,213.31 285.05,213.50 284.80,213.74 284.60,214.02 284.43,214.33 284.32,214.66 284.27,215.00 284.26,215.18 284.26,239.05 284.27,238.87 284.27,239.22 284.32,239.56 284.43,239.89 284.60,240.20 284.80,240.48 285.05,240.72 285.34,240.92 285.66,241.06 285.99,241.16 286.33,241.20 "
       style="stroke-width: nan; stroke: none; fill: #FFFFFF; fill-opacity: 0.50;"
       id="polygon114" />
    <text
       x="302.06"
       y="225.37"
       text-anchor="middle"
       style="font-size: 12.00px; font-family: &quot;Arial&quot;;"
       textLength="7.64px"
       lengthAdjust="spacingAndGlyphs"
       id="text116">0</text>
    <text
       x="302.06"
       y="237.61"
       text-anchor="middle"
       style="font-size: 12.00px; font-family: &quot;Arial&quot;;"
       textLength="28.40px"
       lengthAdjust="spacingAndGlyphs"
       id="text118">(0%)</text>
    <polygon
       points="285.78,126.03 317.07,126.03 316.98,126.03 317.33,126.02 317.67,125.95 317.99,125.82 318.29,125.65 318.56,125.43 318.79,125.17 318.98,124.88 319.11,124.56 319.20,124.22 319.23,123.87 319.23,123.87 319.23,100.00 319.23,100.00 319.20,99.66 319.11,99.32 318.98,99.00 318.79,98.71 318.56,98.45 318.29,98.23 317.99,98.05 317.67,97.93 317.33,97.86 317.07,97.84 285.78,97.84 286.04,97.86 285.69,97.85 285.35,97.89 285.02,97.98 284.70,98.13 284.41,98.33 284.16,98.57 283.96,98.85 283.79,99.16 283.68,99.49 283.63,99.83 283.62,100.00 283.62,123.87 283.63,123.70 283.63,124.05 283.68,124.39 283.79,124.72 283.96,125.03 284.16,125.30 284.41,125.54 284.70,125.74 285.02,125.89 285.35,125.99 285.69,126.03 "
       style="stroke-width: nan; stroke: none; fill: #FFFFFF; fill-opacity: 0.50;"
       id="polygon120" />
    <text
       x="301.42"
       y="110.19"
       text-anchor="middle"
       style="font-size: 12.00px; font-family: &quot;Arial&quot;;"
       textLength="7.64px"
       lengthAdjust="spacingAndGlyphs"
       id="text122">0</text>
    <text
       x="301.42"
       y="122.43"
       text-anchor="middle"
       style="font-size: 12.00px; font-family: &quot;Arial&quot;;"
       textLength="28.40px"
       lengthAdjust="spacingAndGlyphs"
       id="text124">(0%)</text>
    <polygon
       points="151.19,168.55 190.11,168.55 190.02,168.55 190.37,168.53 190.71,168.46 191.04,168.34 191.34,168.17 191.61,167.95 191.84,167.69 192.02,167.39 192.16,167.07 192.24,166.74 192.27,166.39 192.27,166.39 192.27,142.52 192.27,142.52 192.24,142.18 192.16,141.84 192.02,141.52 191.84,141.22 191.61,140.96 191.34,140.74 191.04,140.57 190.71,140.45 190.37,140.38 190.11,140.36 151.19,140.36 151.45,140.38 151.10,140.36 150.75,140.41 150.42,140.50 150.11,140.65 149.82,140.85 149.57,141.09 149.36,141.37 149.20,141.68 149.09,142.00 149.03,142.35 149.03,142.52 149.03,166.39 149.03,166.22 149.03,166.56 149.09,166.91 149.20,167.24 149.36,167.54 149.57,167.82 149.82,168.06 150.11,168.26 150.42,168.41 150.75,168.51 151.10,168.55 "
       style="stroke-width: nan; stroke: none; fill: #FFFFFF; fill-opacity: 0.50;"
       id="polygon126" />
    <text
       x="170.65"
       y="152.71"
       text-anchor="middle"
       style="font-size: 12.00px; font-family: &quot;Arial&quot;;"
       textLength="30.56px"
       lengthAdjust="spacingAndGlyphs"
       id="text128">7860</text>
    <text
       x="170.65"
       y="164.95"
       text-anchor="middle"
       style="font-size: 12.00px; font-family: &quot;Arial&quot;;"
       textLength="36.04px"
       lengthAdjust="spacingAndGlyphs"
       id="text130">(30%)</text>
    <polygon
       points="237.54,259.43 268.83,259.43 268.74,259.43 269.09,259.41 269.43,259.34 269.75,259.22 270.05,259.04 270.32,258.83 270.55,258.56 270.74,258.27 270.88,257.95 270.96,257.61 270.99,257.27 270.99,257.27 270.99,233.40 270.99,233.40 270.96,233.05 270.88,232.72 270.74,232.40 270.55,232.10 270.32,231.84 270.05,231.62 269.75,231.45 269.43,231.32 269.09,231.25 268.83,231.24 237.54,231.24 237.80,231.25 237.46,231.24 237.11,231.28 236.78,231.38 236.46,231.53 236.18,231.73 235.93,231.97 235.72,232.24 235.56,232.55 235.45,232.88 235.39,233.23 235.38,233.40 235.38,257.27 235.39,257.09 235.39,257.44 235.45,257.78 235.56,258.11 235.72,258.42 235.93,258.70 236.18,258.94 236.46,259.14 236.78,259.29 237.11,259.38 237.46,259.43 "
       style="stroke-width: nan; stroke: none; fill: #FFFFFF; fill-opacity: 0.50;"
       id="polygon132" />
    <text
       x="253.19"
       y="243.59"
       text-anchor="middle"
       style="font-size: 12.00px; font-family: &quot;Arial&quot;;"
       textLength="7.64px"
       lengthAdjust="spacingAndGlyphs"
       id="text134">0</text>
    <text
       x="253.19"
       y="255.83"
       text-anchor="middle"
       style="font-size: 12.00px; font-family: &quot;Arial&quot;;"
       textLength="28.40px"
       lengthAdjust="spacingAndGlyphs"
       id="text136">(0%)</text>
    <polygon
       points="163.02,258.11 194.30,258.11 194.22,258.10 194.56,258.09 194.90,258.02 195.23,257.90 195.53,257.72 195.80,257.50 196.03,257.24 196.22,256.95 196.35,256.63 196.44,256.29 196.46,255.95 196.46,255.95 196.46,232.08 196.46,232.08 196.44,231.73 196.35,231.39 196.22,231.07 196.03,230.78 195.80,230.52 195.53,230.30 195.23,230.13 194.90,230.00 194.56,229.93 194.30,229.92 163.02,229.92 163.28,229.93 162.93,229.92 162.59,229.96 162.25,230.06 161.94,230.21 161.65,230.41 161.40,230.65 161.19,230.92 161.03,231.23 160.92,231.56 160.87,231.90 160.86,232.08 160.86,255.95 160.87,255.77 160.87,256.12 160.92,256.46 161.03,256.79 161.19,257.10 161.40,257.38 161.65,257.62 161.94,257.82 162.25,257.97 162.59,258.06 162.93,258.10 "
       style="stroke-width: nan; stroke: none; fill: #FFFFFF; fill-opacity: 0.50;"
       id="polygon138" />
    <text
       x="178.66"
       y="242.27"
       text-anchor="middle"
       style="font-size: 12.00px; font-family: &quot;Arial&quot;;"
       textLength="7.64px"
       lengthAdjust="spacingAndGlyphs"
       id="text140">0</text>
    <text
       x="178.66"
       y="254.51"
       text-anchor="middle"
       style="font-size: 12.00px; font-family: &quot;Arial&quot;;"
       textLength="28.40px"
       lengthAdjust="spacingAndGlyphs"
       id="text142">(0%)</text>
    <polygon
       points="245.71,168.47 276.99,168.47 276.91,168.47 277.25,168.46 277.60,168.39 277.92,168.26 278.22,168.09 278.49,167.87 278.72,167.61 278.91,167.32 279.04,167.00 279.13,166.66 279.15,166.31 279.15,166.31 279.15,142.44 279.15,142.44 279.13,142.10 279.04,141.76 278.91,141.44 278.72,141.15 278.49,140.89 278.22,140.67 277.92,140.49 277.60,140.37 277.25,140.30 276.99,140.28 245.71,140.28 245.97,140.30 245.62,140.29 245.28,140.33 244.94,140.42 244.63,140.57 244.34,140.77 244.09,141.01 243.88,141.29 243.72,141.60 243.61,141.93 243.56,142.27 243.55,142.44 243.55,166.31 243.56,166.14 243.56,166.49 243.61,166.83 243.72,167.16 243.88,167.47 244.09,167.74 244.34,167.98 244.63,168.18 244.94,168.33 245.28,168.43 245.62,168.47 "
       style="stroke-width: nan; stroke: none; fill: #FFFFFF; fill-opacity: 0.50;"
       id="polygon144" />
    <text
       x="261.35"
       y="152.63"
       text-anchor="middle"
       style="font-size: 12.00px; font-family: &quot;Arial&quot;;"
       textLength="7.64px"
       lengthAdjust="spacingAndGlyphs"
       id="text146">0</text>
    <text
       x="261.35"
       y="164.87"
       text-anchor="middle"
       style="font-size: 12.00px; font-family: &quot;Arial&quot;;"
       textLength="28.40px"
       lengthAdjust="spacingAndGlyphs"
       id="text148">(0%)</text>
    <polygon
       points="195.43,212.68 236.50,212.68 236.42,212.68 236.76,212.67 237.10,212.60 237.43,212.47 237.73,212.30 238.00,212.08 238.23,211.82 238.42,211.53 238.55,211.21 238.64,210.87 238.66,210.52 238.66,210.52 238.66,186.66 238.66,186.66 238.64,186.31 238.55,185.97 238.42,185.65 238.23,185.36 238.00,185.10 237.73,184.88 237.43,184.70 237.10,184.58 236.76,184.51 236.50,184.50 195.43,184.50 195.69,184.51 195.34,184.50 195.00,184.54 194.66,184.64 194.35,184.78 194.06,184.98 193.81,185.22 193.60,185.50 193.44,185.81 193.33,186.14 193.27,186.48 193.27,186.66 193.27,210.52 193.27,210.35 193.27,210.70 193.33,211.04 193.44,211.37 193.60,211.68 193.81,211.96 194.06,212.20 194.35,212.39 194.66,212.54 195.00,212.64 195.34,212.68 "
       style="stroke-width: nan; stroke: none; fill: #FFFFFF; fill-opacity: 0.50;"
       id="polygon150" />
    <text
       x="215.97"
       y="196.84"
       text-anchor="middle"
       style="font-size: 12.00px; font-family: &quot;Arial&quot;;"
       textLength="38.20px"
       lengthAdjust="spacingAndGlyphs"
       id="text152">14955</text>
    <text
       x="215.97"
       y="209.08"
       text-anchor="middle"
       style="font-size: 12.00px; font-family: &quot;Arial&quot;;"
       textLength="36.04px"
       lengthAdjust="spacingAndGlyphs"
       id="text154">(58%)</text>
  </g>
  <g
     clip-path="url(#cpMC4wMHw0MzIuMDB8MC4wMHwzNjAuMDA=)"
     id="g158" />
</svg>
