<?xml version="1.0" encoding="UTF-8" standalone="no"?>
<svg
   class="svglite"
   width="504.00pt"
   height="360.00pt"
   viewBox="0 0 504.00 360.00"
   version="1.1"
   id="svg160"
   sodipodi:docname="offtargets_venn_diagram.svg"
   inkscape:version="1.1.2 (0a00cf5339, 2022-02-04)"
   xmlns:inkscape="http://www.inkscape.org/namespaces/inkscape"
   xmlns:sodipodi="http://sodipodi.sourceforge.net/DTD/sodipodi-0.dtd"
   xmlns="http://www.w3.org/2000/svg"
   xmlns:svg="http://www.w3.org/2000/svg">
  <sodipodi:namedview
     id="namedview162"
     pagecolor="#ffffff"
     bordercolor="#666666"
     borderopacity="1.0"
     inkscape:pageshadow="2"
     inkscape:pageopacity="0.0"
     inkscape:pagecheckerboard="0"
     inkscape:document-units="pt"
     showgrid="false"
     showguides="false"
     inkscape:guide-bbox="true"
     inkscape:zoom="1.4979167"
     inkscape:cx="329.79138"
     inkscape:cy="240"
     inkscape:window-width="1850"
     inkscape:window-height="1136"
     inkscape:window-x="0"
     inkscape:window-y="0"
     inkscape:window-maximized="1"
     inkscape:current-layer="g156">
    <sodipodi:guide
       position="21.594445,318.35231"
       orientation="1,0"
       id="guide15624" />
    <sodipodi:guide
       position="462.91,226.66"
       orientation="1,0"
       id="guide15626" />
    <sodipodi:guide
       position="285.39638,300.41725"
       orientation="0,-1"
       id="guide37059" />
    <sodipodi:guide
       position="216.49991,337.58019"
       orientation="0,-1"
       id="guide109927" />
  </sodipodi:namedview>
  <defs
     id="defs4">
    <style
       type="text/css"
       id="style2"><![CDATA[
    .svglite line, .svglite polyline, .svglite polygon, .svglite path, .svglite rect, .svglite circle {
      fill: none;
      stroke: #000000;
      stroke-linecap: round;
      stroke-linejoin: round;
      stroke-miterlimit: 10.00;
    }
    .svglite text {
      white-space: pre;
    }
  ]]></style>
  </defs>
  <rect
     width="100%"
     height="100%"
     style="stroke: none; fill: none;"
     id="rect6" />
  <defs
     id="defs11">
    <clipPath
       id="cpMC4wMHw1MDQuMDB8MC4wMHwzNjAuMDA=">
      <rect
         x="0.00"
         y="0.00"
         width="504.00"
         height="360.00"
         id="rect8" />
    </clipPath>
  </defs>
  <g
     clip-path="url(#cpMC4wMHw1MDQuMDB8MC4wMHwzNjAuMDA=)"
     id="g13" />
  <defs
     id="defs18">
    <clipPath
       id="cpMjAuMDB8NDg0LjAwfDAuMDB8MzYwLjAw">
      <rect
         x="20.00"
         y="0.00"
         width="464.00"
         height="360.00"
         id="rect15" />
    </clipPath>
  </defs>
  <g
     clip-path="url(#cpMjAuMDB8NDg0LjAwfDAuMDB8MzYwLjAw)"
     id="g156">
    <polygon
       points="59.28,85.46 63.82,81.39 68.82,77.81 74.25,74.74 80.10,72.18 86.34,70.14 92.95,68.65 99.89,67.69 107.16,67.27 114.70,67.40 121.52,67.99 121.53,70.29 122.07,76.59 123.13,83.21 124.70,90.12 126.76,97.29 129.33,104.70 132.37,112.32 135.89,120.11 139.87,128.04 144.28,136.09 149.13,144.23 154.38,152.41 157.96,157.62 157.30,158.61 152.43,166.41 147.96,174.17 143.90,181.86 140.26,189.46 137.07,196.93 134.32,204.24 132.05,211.36 130.24,218.27 128.92,224.94 128.08,231.34 127.74,237.44 127.88,243.23 128.51,248.68 129.63,253.76 131.23,258.46 133.31,262.77 135.86,266.65 138.86,270.10 142.32,273.11 146.20,275.66 150.50,277.74 155.21,279.34 160.29,280.46 165.74,281.09 171.53,281.23 177.63,280.89 184.03,280.05 186.66,279.53 186.96,284.83 187.92,291.78 189.42,298.38 191.45,304.62 194.01,310.47 197.09,315.91 200.67,320.90 204.73,325.45 209.28,329.51 214.27,333.09 219.71,336.17 225.56,338.73 231.80,340.76 238.40,342.26 245.35,343.22 252.00,343.60 251.39,343.64 243.85,343.51 236.05,342.83 228.02,341.62 219.81,339.86 211.43,337.58 202.93,334.77 194.33,331.46 185.68,327.64 176.99,323.35 168.32,318.59 159.69,313.38 151.14,307.74 142.70,301.71 134.40,295.29 126.29,288.52 118.38,281.42 110.71,274.02 103.31,266.35 96.21,258.44 89.44,250.32 83.02,242.03 76.98,233.58 71.35,225.03 66.14,216.40 61.38,207.73 57.08,199.05 53.27,190.40 49.95,181.80 47.15,173.30 44.86,164.92 43.11,156.70 41.89,148.68 41.22,140.88 41.09,133.34 41.51,126.07 42.47,119.13 43.96,112.52 46.00,106.28 48.56,100.43 51.63,95.00 55.21,90.00 59.28,85.46 "
       style="stroke-width: 1.07; stroke: none; stroke-linecap: butt; fill: #FFFFFF;"
       id="polygon20" />
    <polygon
       points="130.52,69.29 138.74,71.04 147.12,73.33 155.62,76.13 164.22,79.45 172.87,83.26 181.55,87.56 190.22,92.32 198.85,97.53 204.79,101.44 200.57,105.54 193.57,112.75 186.80,120.13 180.29,127.65 174.05,135.29 168.13,143.02 162.54,150.80 157.96,157.62 154.38,152.41 149.13,144.23 144.28,136.09 139.87,128.04 135.89,120.11 132.37,112.32 129.33,104.70 126.76,97.29 124.70,90.12 123.13,83.21 122.07,76.59 121.53,70.29 121.52,67.99 122.50,68.07 130.52,69.29 "
       style="stroke-width: 1.07; stroke: none; stroke-linecap: butt; fill: #FFEDF6;"
       id="polygon22" />
    <polygon
       points="215.85,109.20 224.14,115.62 232.26,122.39 240.17,129.49 247.84,136.89 252.00,141.20 248.76,144.56 241.66,152.47 234.89,160.58 228.47,168.88 222.44,177.32 216.80,185.87 211.59,194.50 206.83,203.17 203.06,210.81 200.57,208.39 193.14,200.76 185.94,192.95 179.00,185.00 172.35,176.94 166.01,168.80 160.01,160.61 157.96,157.62 162.54,150.80 168.13,143.02 174.05,135.29 180.29,127.65 186.80,120.13 193.57,112.75 200.57,105.54 204.79,101.44 207.40,103.16 215.85,109.20 "
       style="stroke-width: 1.07; stroke: none; stroke-linecap: butt; fill: #FFD1E9;"
       id="polygon24" />
    <polygon
       points="255.24,144.56 262.34,152.47 269.11,160.58 275.53,168.88 281.56,177.32 287.20,185.87 292.41,194.50 297.17,203.17 300.94,210.81 296.22,215.40 288.84,222.17 281.32,228.68 273.67,234.91 265.95,240.84 258.17,246.43 251.35,251.01 248.36,248.96 240.17,242.96 232.03,236.62 223.97,229.97 216.02,223.03 208.21,215.83 203.06,210.81 206.83,203.17 211.59,194.50 216.80,185.87 222.44,177.32 228.47,168.88 234.89,160.58 241.66,152.47 248.76,144.56 252.00,141.20 255.24,144.56 "
       style="stroke-width: 1.07; stroke: none; stroke-linecap: butt; fill: #FFA6D5;"
       id="polygon26" />
    <polygon
       points="301.46,211.86 305.28,220.51 308.59,229.11 311.40,237.61 313.68,245.99 315.44,254.20 316.65,262.23 317.33,270.03 317.46,277.57 317.10,283.77 311.68,282.20 304.27,279.64 296.65,276.60 288.86,273.08 280.93,269.10 272.88,264.68 264.74,259.84 256.56,254.59 251.35,251.01 258.17,246.43 265.95,240.84 273.67,234.91 281.32,228.68 288.84,222.17 296.22,215.40 300.94,210.81 301.46,211.86 "
       style="stroke-width: 1.07; stroke: none; stroke-linecap: butt; fill: #FFFFFF;"
       id="polygon28" />
    <polygon
       points="184.03,280.05 177.63,280.89 171.53,281.23 165.74,281.09 160.29,280.46 155.21,279.34 150.50,277.74 146.20,275.66 142.32,273.11 138.86,270.10 135.86,266.65 133.31,262.77 131.23,258.46 129.63,253.76 128.51,248.68 127.88,243.23 127.74,237.44 128.08,231.34 128.92,224.94 130.24,218.27 132.05,211.36 134.32,204.24 137.07,196.93 140.26,189.46 143.90,181.86 147.96,174.17 152.43,166.41 157.30,158.61 157.96,157.62 160.01,160.61 166.01,168.80 172.35,176.94 179.00,185.00 185.94,192.95 193.14,200.76 200.57,208.39 203.06,210.81 202.54,211.86 198.72,220.51 195.41,229.11 192.60,237.61 190.32,245.99 188.56,254.20 187.35,262.23 186.67,270.03 186.54,277.57 186.66,279.53 184.03,280.05 "
       style="stroke-width: 1.07; stroke: none; stroke-linecap: butt; fill: #FFFFFF;"
       id="polygon30" />
    <polygon
       points="250.36,251.67 242.56,256.54 234.80,261.01 227.10,265.07 219.51,268.71 212.04,271.90 204.73,274.64 197.61,276.92 190.70,278.72 186.66,279.53 186.54,277.57 186.67,270.03 187.35,262.23 188.56,254.20 190.32,245.99 192.60,237.61 195.41,229.11 198.72,220.51 202.54,211.86 203.06,210.81 208.21,215.83 216.02,223.03 223.97,229.97 232.03,236.62 240.17,242.96 248.36,248.96 251.35,251.01 250.36,251.67 "
       style="stroke-width: 1.07; stroke: none; stroke-linecap: butt; fill: #FFFFFF;"
       id="polygon32" />
    <polygon
       points="317.04,284.83 316.08,291.78 314.58,298.38 312.55,304.62 309.99,310.47 306.91,315.91 303.33,320.90 299.27,325.45 294.72,329.51 289.73,333.09 284.29,336.17 278.44,338.73 272.20,340.76 265.60,342.26 258.65,343.22 252.00,343.60 245.35,343.22 238.40,342.26 231.80,340.76 225.56,338.73 219.71,336.17 214.27,333.09 209.28,329.51 204.73,325.45 200.67,320.90 197.09,315.91 194.01,310.47 191.45,304.62 189.42,298.38 187.92,291.78 186.96,284.83 186.66,279.53 190.70,278.72 197.61,276.92 204.73,274.64 212.04,271.90 219.51,268.71 227.10,265.07 234.80,261.01 242.56,256.54 250.36,251.67 251.35,251.01 256.56,254.59 264.74,259.84 272.88,264.68 280.93,269.10 288.86,273.08 296.65,276.60 304.27,279.64 311.68,282.20 317.10,283.77 317.04,284.83 "
       style="stroke-width: 1.07; stroke: none; stroke-linecap: butt; fill: #FFFFFF;"
       id="polygon34" />
    <polygon
       points="132.01,36.98 135.47,33.98 139.40,31.48 143.77,29.46 148.57,27.96 153.77,26.96 159.36,26.47 165.32,26.50 171.62,27.04 178.24,28.10 185.15,29.67 192.32,31.73 199.73,34.29 207.35,37.34 215.14,40.86 223.07,44.83 231.12,49.25 239.26,54.10 247.44,59.35 252.65,62.93 245.83,67.51 238.05,73.10 230.33,79.02 222.68,85.25 215.16,91.77 207.78,98.54 204.79,101.44 198.85,97.53 190.22,92.32 181.55,87.56 172.87,83.26 164.22,79.45 155.62,76.13 147.12,73.33 138.74,71.04 130.52,69.29 122.50,68.07 121.52,67.99 121.50,64.33 121.99,58.74 122.99,53.53 124.50,48.74 126.51,44.37 129.01,40.44 132.01,36.98 "
       style="stroke-width: 1.07; stroke: none; stroke-linecap: butt; fill: #FFFFFF;"
       id="polygon36" />
    <polygon
       points="207.78,98.54 215.16,91.77 222.68,85.25 230.33,79.02 238.05,73.10 245.83,67.51 252.65,62.93 255.64,64.98 263.83,70.98 271.97,77.32 280.03,83.97 287.98,90.91 295.79,98.11 299.21,101.44 296.60,103.16 288.15,109.20 279.86,115.62 271.74,122.39 263.83,129.49 256.16,136.89 252.00,141.20 247.84,136.89 240.17,129.49 232.26,122.39 224.14,115.62 215.85,109.20 207.40,103.16 204.79,101.44 207.78,98.54 "
       style="stroke-width: 1.07; stroke: none; stroke-linecap: butt; fill: #FFFFFF;"
       id="polygon38" />
    <polygon
       points="256.16,136.89 263.83,129.49 271.74,122.39 279.86,115.62 288.15,109.20 296.60,103.16 299.21,101.44 303.43,105.54 310.86,113.18 318.06,120.99 325.00,128.94 331.65,137.00 337.99,145.14 343.99,153.33 346.04,156.32 341.46,163.13 335.87,170.92 329.95,178.64 323.71,186.28 317.20,193.81 310.43,201.19 303.43,208.39 300.94,210.81 297.17,203.17 292.41,194.50 287.20,185.87 281.56,177.32 275.53,168.88 269.11,160.58 262.34,152.47 255.24,144.56 252.00,141.20 256.16,136.89 "
       style="stroke-width: 1.07; stroke: none; stroke-linecap: butt; fill: #FFFFFF;"
       id="polygon40" />
    <polygon
       points="349.62,161.53 354.87,169.71 359.72,177.84 364.13,185.89 368.11,193.83 371.63,201.62 374.67,209.24 377.24,216.64 379.30,223.82 380.87,230.73 381.93,237.34 382.47,243.65 382.50,249.60 382.01,255.20 381.01,260.40 379.50,265.20 377.49,269.57 374.99,273.50 371.99,276.96 368.53,279.95 364.60,282.46 360.23,284.47 355.43,285.98 350.23,286.98 344.64,287.47 338.68,287.44 332.38,286.89 325.76,285.84 318.85,284.27 317.10,283.77 317.46,277.57 317.33,270.03 316.65,262.23 315.44,254.20 313.68,245.99 311.40,237.61 308.59,229.11 305.28,220.51 301.46,211.86 300.94,210.81 303.43,208.39 310.43,201.19 317.20,193.81 323.71,186.28 329.95,178.64 335.87,170.92 341.46,163.13 346.04,156.32 349.62,161.53 "
       style="stroke-width: 1.07; stroke: none; stroke-linecap: butt; fill: #FFFFFF;"
       id="polygon42" />
    <polygon
       points="365.14,43.83 368.14,47.28 370.69,51.17 372.77,55.47 374.37,60.18 375.49,65.26 375.91,68.92 373.48,69.29 365.26,71.04 356.88,73.33 348.38,76.13 339.78,79.45 331.13,83.26 322.45,87.56 313.78,92.32 305.15,97.53 299.21,101.44 295.79,98.11 287.98,90.91 280.03,83.97 271.97,77.32 263.83,70.98 255.64,64.98 252.65,62.93 253.64,62.27 261.44,57.40 269.20,52.93 276.90,48.86 284.49,45.23 291.96,42.03 299.27,39.29 306.39,37.02 313.30,35.21 319.97,33.89 326.37,33.05 332.47,32.70 338.26,32.85 343.71,33.48 348.79,34.60 353.50,36.20 357.80,38.28 361.68,40.83 365.14,43.83 "
       style="stroke-width: 1.07; stroke: none; stroke-linecap: butt; fill: #FFFFFF;"
       id="polygon44" />
    <polygon
       points="376.26,76.50 375.92,82.60 375.08,89.00 373.76,95.67 371.95,102.58 369.68,109.70 366.93,117.01 363.74,124.48 360.10,132.07 356.04,139.77 351.57,147.53 346.70,155.33 346.04,156.32 343.99,153.33 337.99,145.14 331.65,137.00 325.00,128.94 318.06,120.99 310.86,113.18 303.43,105.54 299.21,101.44 305.15,97.53 313.78,92.32 322.45,87.56 331.13,83.26 339.78,79.45 348.38,76.13 356.88,73.33 365.26,71.04 373.48,69.29 375.91,68.92 376.12,70.71 376.26,76.50 "
       style="stroke-width: 1.07; stroke: none; stroke-linecap: butt; fill: #FFFFFF;"
       id="polygon46" />
    <polygon
       points="444.72,85.46 448.79,90.00 452.37,95.00 455.44,100.43 458.00,106.28 460.04,112.52 461.53,119.13 462.49,126.07 462.91,133.34 462.78,140.88 462.11,148.68 460.89,156.70 459.14,164.92 456.85,173.30 454.05,181.80 450.73,190.40 446.92,199.05 442.62,207.73 437.86,216.40 432.65,225.03 427.02,233.58 420.98,242.03 414.56,250.32 407.79,258.44 400.69,266.35 393.29,274.02 385.62,281.42 377.71,288.52 369.60,295.29 361.30,301.71 352.86,307.74 344.31,313.38 335.68,318.59 327.01,323.35 318.32,327.64 309.67,331.46 301.07,334.77 292.57,337.58 284.19,339.86 275.98,341.62 267.95,342.83 260.15,343.51 252.61,343.64 252.00,343.60 258.65,343.22 265.60,342.26 272.20,340.76 278.44,338.73 284.29,336.17 289.73,333.09 294.72,329.51 299.27,325.45 303.33,320.90 306.91,315.91 309.99,310.47 312.55,304.62 314.58,298.38 316.08,291.78 317.04,284.83 317.10,283.77 318.85,284.27 325.76,285.84 332.38,286.89 338.68,287.44 344.64,287.47 350.23,286.98 355.43,285.98 360.23,284.47 364.60,282.46 368.53,279.95 371.99,276.96 374.99,273.50 377.49,269.57 379.50,265.20 381.01,260.40 382.01,255.20 382.50,249.60 382.47,243.65 381.93,237.34 380.87,230.73 379.30,223.82 377.24,216.64 374.67,209.24 371.63,201.62 368.11,193.83 364.13,185.89 359.72,177.84 354.87,169.71 349.62,161.53 346.04,156.32 346.70,155.33 351.57,147.53 356.04,139.77 360.10,132.07 363.74,124.48 366.93,117.01 369.68,109.70 371.95,102.58 373.76,95.67 375.08,89.00 375.92,82.60 376.26,76.50 376.12,70.71 375.91,68.92 381.50,68.07 389.30,67.40 396.84,67.27 404.11,67.69 411.05,68.65 417.66,70.14 423.90,72.18 429.75,74.74 435.18,77.81 440.18,81.39 444.72,85.46 "
       style="stroke-width: 1.07; stroke: none; stroke-linecap: butt; fill: #FFFFFF;"
       id="polygon48" />
    <polyline
       points="59.28,85.46 55.21,90.00 51.63,95.00 48.56,100.43 46.00,106.28 43.96,112.52 42.47,119.13 41.51,126.07 41.09,133.34 41.22,140.88 41.89,148.68 43.11,156.70 44.86,164.92 47.15,173.30 49.95,181.80 53.27,190.40 57.08,199.05 61.38,207.73 66.14,216.40 71.35,225.03 76.98,233.58 83.02,242.03 89.44,250.32 96.21,258.44 103.31,266.35 110.71,274.02 118.38,281.42 126.29,288.52 134.40,295.29 142.70,301.71 151.14,307.74 159.69,313.38 168.32,318.59 176.99,323.35 185.68,327.64 194.33,331.46 202.93,334.77 211.43,337.58 219.81,339.86 228.02,341.62 236.05,342.83 243.85,343.51 251.39,343.64 258.65,343.22 265.60,342.26 272.20,340.76 278.44,338.73 284.29,336.17 289.73,333.09 294.72,329.51 299.27,325.45 303.33,320.90 306.91,315.91 309.99,310.47 312.55,304.62 314.58,298.38 316.08,291.78 317.04,284.83 317.46,277.57 317.33,270.03 316.65,262.23 315.44,254.20 313.68,245.99 311.40,237.61 308.59,229.11 305.28,220.51 301.46,211.86 297.17,203.17 292.41,194.50 287.20,185.87 281.56,177.32 275.53,168.88 269.11,160.58 262.34,152.47 255.24,144.56 247.84,136.89 240.17,129.49 232.26,122.39 224.14,115.62 215.85,109.20 207.40,103.16 198.85,97.53 190.22,92.32 181.55,87.56 172.87,83.26 164.22,79.45 155.62,76.13 147.12,73.33 138.74,71.04 130.52,69.29 122.50,68.07 114.70,67.40 107.16,67.27 99.89,67.69 92.95,68.65 86.34,70.14 80.10,72.18 74.25,74.74 68.82,77.81 63.82,81.39 59.28,85.46 "
       style="stroke-width: 2.13; stroke-linecap: butt;"
       id="polyline50" />
    <polyline
       points="132.01,36.98 129.01,40.44 126.51,44.37 124.50,48.74 122.99,53.53 121.99,58.74 121.50,64.33 121.53,70.29 122.07,76.59 123.13,83.21 124.70,90.12 126.76,97.29 129.33,104.70 132.37,112.32 135.89,120.11 139.87,128.04 144.28,136.09 149.13,144.23 154.38,152.41 160.01,160.61 166.01,168.80 172.35,176.94 179.00,185.00 185.94,192.95 193.14,200.76 200.57,208.39 208.21,215.83 216.02,223.03 223.97,229.97 232.03,236.62 240.17,242.96 248.36,248.96 256.56,254.59 264.74,259.84 272.88,264.68 280.93,269.10 288.86,273.08 296.65,276.60 304.27,279.64 311.68,282.20 318.85,284.27 325.76,285.84 332.38,286.89 338.68,287.44 344.64,287.47 350.23,286.98 355.43,285.98 360.23,284.47 364.60,282.46 368.53,279.95 371.99,276.96 374.99,273.50 377.49,269.57 379.50,265.20 381.01,260.40 382.01,255.20 382.50,249.60 382.47,243.65 381.93,237.34 380.87,230.73 379.30,223.82 377.24,216.64 374.67,209.24 371.63,201.62 368.11,193.83 364.13,185.89 359.72,177.84 354.87,169.71 349.62,161.53 343.99,153.33 337.99,145.14 331.65,137.00 325.00,128.94 318.06,120.99 310.86,113.18 303.43,105.54 295.79,98.11 287.98,90.91 280.03,83.97 271.97,77.32 263.83,70.98 255.64,64.98 247.44,59.35 239.26,54.10 231.12,49.25 223.07,44.83 215.14,40.86 207.35,37.34 199.73,34.29 192.32,31.73 185.15,29.67 178.24,28.10 171.62,27.04 165.32,26.50 159.36,26.47 153.77,26.96 148.57,27.96 143.77,29.46 139.40,31.48 135.47,33.98 132.01,36.98 "
       style="stroke-width: 2.13; stroke-linecap: butt;"
       id="polyline52" />
    <polyline
       points="365.14,43.83 361.68,40.83 357.80,38.28 353.50,36.20 348.79,34.60 343.71,33.48 338.26,32.85 332.47,32.70 326.37,33.05 319.97,33.89 313.30,35.21 306.39,37.02 299.27,39.29 291.96,42.03 284.49,45.23 276.90,48.86 269.20,52.93 261.44,57.40 253.64,62.27 245.83,67.51 238.05,73.10 230.33,79.02 222.68,85.25 215.16,91.77 207.78,98.54 200.57,105.54 193.57,112.75 186.80,120.13 180.29,127.65 174.05,135.29 168.13,143.02 162.54,150.80 157.30,158.61 152.43,166.41 147.96,174.17 143.90,181.86 140.26,189.46 137.07,196.93 134.32,204.24 132.05,211.36 130.24,218.27 128.92,224.94 128.08,231.34 127.74,237.44 127.88,243.23 128.51,248.68 129.63,253.76 131.23,258.46 133.31,262.77 135.86,266.65 138.86,270.10 142.32,273.11 146.20,275.66 150.50,277.74 155.21,279.34 160.29,280.46 165.74,281.09 171.53,281.23 177.63,280.89 184.03,280.05 190.70,278.72 197.61,276.92 204.73,274.64 212.04,271.90 219.51,268.71 227.10,265.07 234.80,261.01 242.56,256.54 250.36,251.67 258.17,246.43 265.95,240.84 273.67,234.91 281.32,228.68 288.84,222.17 296.22,215.40 303.43,208.39 310.43,201.19 317.20,193.81 323.71,186.28 329.95,178.64 335.87,170.92 341.46,163.13 346.70,155.33 351.57,147.53 356.04,139.77 360.10,132.07 363.74,124.48 366.93,117.01 369.68,109.70 371.95,102.58 373.76,95.67 375.08,89.00 375.92,82.60 376.26,76.50 376.12,70.71 375.49,65.26 374.37,60.18 372.77,55.47 370.69,51.17 368.14,47.28 365.14,43.83 "
       style="stroke-width: 2.13; stroke-linecap: butt;"
       id="polyline54" />
    <polyline
       points="444.72,85.46 440.18,81.39 435.18,77.81 429.75,74.74 423.90,72.18 417.66,70.14 411.05,68.65 404.11,67.69 396.84,67.27 389.30,67.40 381.50,68.07 373.48,69.29 365.26,71.04 356.88,73.33 348.38,76.13 339.78,79.45 331.13,83.26 322.45,87.56 313.78,92.32 305.15,97.53 296.60,103.16 288.15,109.20 279.86,115.62 271.74,122.39 263.83,129.49 256.16,136.89 248.76,144.56 241.66,152.47 234.89,160.58 228.47,168.88 222.44,177.32 216.80,185.87 211.59,194.50 206.83,203.17 202.54,211.86 198.72,220.51 195.41,229.11 192.60,237.61 190.32,245.99 188.56,254.20 187.35,262.23 186.67,270.03 186.54,277.57 186.96,284.83 187.92,291.78 189.42,298.38 191.45,304.62 194.01,310.47 197.09,315.91 200.67,320.90 204.73,325.45 209.28,329.51 214.27,333.09 219.71,336.17 225.56,338.73 231.80,340.76 238.40,342.26 245.35,343.22 252.61,343.64 260.15,343.51 267.95,342.83 275.98,341.62 284.19,339.86 292.57,337.58 301.07,334.77 309.67,331.46 318.32,327.64 327.01,323.35 335.68,318.59 344.31,313.38 352.86,307.74 361.30,301.71 369.60,295.29 377.71,288.52 385.62,281.42 393.29,274.02 400.69,266.35 407.79,258.44 414.56,250.32 420.98,242.03 427.02,233.58 432.65,225.03 437.86,216.40 442.62,207.73 446.92,199.05 450.73,190.40 454.05,181.80 456.85,173.30 459.14,164.92 460.89,156.70 462.11,148.68 462.78,140.88 462.91,133.34 462.49,126.07 461.53,119.13 460.04,112.52 458.00,106.28 455.44,100.43 452.37,95.00 448.79,90.00 444.72,85.46 "
       style="stroke-width: 2.13; stroke-linecap: butt;"
       id="polyline56" />
    <polygon
       points="91.12,195.75 122.41,195.75 122.32,195.74 122.67,195.73 123.01,195.66 123.33,195.54 123.64,195.36 123.90,195.14 124.13,194.88 124.32,194.59 124.46,194.27 124.54,193.93 124.57,193.59 124.57,193.59 124.57,169.72 124.57,169.72 124.54,169.37 124.46,169.03 124.32,168.71 124.13,168.42 123.90,168.16 123.64,167.94 123.33,167.77 123.01,167.64 122.67,167.57 122.41,167.56 91.12,167.56 91.38,167.57 91.04,167.56 90.69,167.60 90.36,167.70 90.04,167.85 89.76,168.04 89.51,168.29 89.30,168.56 89.14,168.87 89.03,169.20 88.97,169.54 88.96,169.72 88.96,193.59 88.97,193.41 88.97,193.76 89.03,194.10 89.14,194.43 89.30,194.74 89.51,195.02 89.76,195.26 90.04,195.46 90.36,195.61 90.69,195.70 91.04,195.74 "
       style="stroke-width: nan; stroke: none; fill: #FFFFFF; fill-opacity: 0.50;"
       id="polygon66" />
    <text
       x="106.77"
       y="179.91"
       text-anchor="middle"
       style="font-size: 12.00px; font-family: &quot;Arial&quot;;"
       textLength="7.64px"
       lengthAdjust="spacingAndGlyphs"
       id="text68">0</text>
    <text
       x="106.77"
       y="192.15"
       text-anchor="middle"
       style="font-size: 12.00px; font-family: &quot;Arial&quot;;"
       textLength="28.40px"
       lengthAdjust="spacingAndGlyphs"
       id="text70">(0%)</text>
    <polygon
       points="167.70,73.42 198.98,73.42 198.89,73.42 199.24,73.41 199.58,73.34 199.91,73.21 200.21,73.04 200.48,72.82 200.71,72.56 200.89,72.27 201.03,71.95 201.11,71.61 201.14,71.26 201.14,71.26 201.14,47.39 201.14,47.39 201.11,47.05 201.03,46.71 200.89,46.39 200.71,46.10 200.48,45.84 200.21,45.62 199.91,45.44 199.58,45.32 199.24,45.25 198.98,45.23 167.70,45.23 167.96,45.25 167.61,45.24 167.26,45.28 166.93,45.37 166.62,45.52 166.33,45.72 166.08,45.96 165.87,46.24 165.71,46.55 165.60,46.88 165.54,47.22 165.54,47.39 165.54,71.26 165.54,71.09 165.54,71.44 165.60,71.78 165.71,72.11 165.87,72.42 166.08,72.69 166.33,72.94 166.62,73.13 166.93,73.28 167.26,73.38 167.61,73.42 "
       style="stroke-width: nan; stroke: none; fill: #FFFFFF; fill-opacity: 0.50;"
       id="polygon72" />
    <text
       x="183.34"
       y="57.58"
       text-anchor="middle"
       style="font-size: 12.00px; font-family: &quot;Arial&quot;;"
       textLength="7.64px"
       lengthAdjust="spacingAndGlyphs"
       id="text74">0</text>
    <text
       x="183.34"
       y="69.82"
       text-anchor="middle"
       style="font-size: 12.00px; font-family: &quot;Arial&quot;;"
       textLength="28.40px"
       lengthAdjust="spacingAndGlyphs"
       id="text76">(0%)</text>
    <polygon
       points="301.03,76.42 332.32,76.42 332.23,76.42 332.58,76.40 332.92,76.33 333.24,76.21 333.55,76.04 333.81,75.82 334.05,75.56 334.23,75.26 334.37,74.94 334.45,74.61 334.48,74.26 334.48,74.26 334.48,50.39 334.48,50.39 334.45,50.05 334.37,49.71 334.23,49.39 334.05,49.09 333.81,48.83 333.55,48.61 333.24,48.44 332.92,48.32 332.58,48.25 332.32,48.23 301.03,48.23 301.29,48.25 300.95,48.23 300.60,48.28 300.27,48.37 299.95,48.52 299.67,48.72 299.42,48.96 299.21,49.24 299.05,49.55 298.94,49.87 298.88,50.22 298.87,50.39 298.87,74.26 298.88,74.09 298.88,74.43 298.94,74.78 299.05,75.11 299.21,75.41 299.42,75.69 299.67,75.93 299.95,76.13 300.27,76.28 300.60,76.38 300.95,76.42 "
       style="stroke-width: nan; stroke: none; fill: #FFFFFF; fill-opacity: 0.50;"
       id="polygon78" />
    <text
       x="316.68"
       y="60.58"
       text-anchor="middle"
       style="font-size: 12.00px; font-family: &quot;Arial&quot;;"
       textLength="7.64px"
       lengthAdjust="spacingAndGlyphs"
       id="text80">0</text>
    <text
       x="316.68"
       y="72.82"
       text-anchor="middle"
       style="font-size: 12.00px; font-family: &quot;Arial&quot;;"
       textLength="28.40px"
       lengthAdjust="spacingAndGlyphs"
       id="text82">(0%)</text>
    <polygon
       points="383.02,190.52 414.30,190.52 414.21,190.51 414.56,190.50 414.90,190.43 415.23,190.31 415.53,190.13 415.80,189.91 416.03,189.65 416.21,189.36 416.35,189.04 416.43,188.70 416.46,188.36 416.46,188.36 416.46,164.49 416.46,164.49 416.43,164.14 416.35,163.80 416.21,163.48 416.03,163.19 415.80,162.93 415.53,162.71 415.23,162.54 414.90,162.41 414.56,162.34 414.30,162.33 383.02,162.33 383.28,162.34 382.93,162.33 382.58,162.37 382.25,162.47 381.94,162.62 381.65,162.81 381.40,163.05 381.19,163.33 381.03,163.64 380.92,163.97 380.86,164.31 380.86,164.49 380.86,188.36 380.86,188.18 380.86,188.53 380.92,188.87 381.03,189.20 381.19,189.51 381.40,189.79 381.65,190.03 381.94,190.23 382.25,190.37 382.58,190.47 382.93,190.51 "
       style="stroke-width: nan; stroke: none; fill: #FFFFFF; fill-opacity: 0.50;"
       id="polygon84" />
    <text
       x="398.66"
       y="174.68"
       text-anchor="middle"
       style="font-size: 12.00px; font-family: &quot;Arial&quot;;"
       textLength="7.64px"
       lengthAdjust="spacingAndGlyphs"
       id="text86">0</text>
    <text
       x="398.66"
       y="186.92"
       text-anchor="middle"
       style="font-size: 12.00px; font-family: &quot;Arial&quot;;"
       textLength="28.40px"
       lengthAdjust="spacingAndGlyphs"
       id="text88">(0%)</text>
    <polygon
       points="138.71,120.63 177.63,120.63 177.54,120.63 177.89,120.61 178.23,120.54 178.56,120.42 178.86,120.25 179.13,120.03 179.36,119.77 179.54,119.47 179.68,119.15 179.76,118.82 179.79,118.47 179.79,118.47 179.79,94.60 179.79,94.60 179.76,94.25 179.68,93.92 179.54,93.60 179.36,93.30 179.13,93.04 178.86,92.82 178.56,92.65 178.23,92.53 177.89,92.46 177.63,92.44 138.71,92.44 138.97,92.46 138.62,92.44 138.28,92.48 137.94,92.58 137.63,92.73 137.34,92.93 137.09,93.17 136.88,93.45 136.72,93.75 136.61,94.08 136.55,94.43 136.55,94.60 136.55,118.47 136.55,118.30 136.55,118.64 136.61,118.99 136.72,119.32 136.88,119.62 137.09,119.90 137.34,120.14 137.63,120.34 137.94,120.49 138.28,120.59 138.62,120.63 "
       style="stroke-width: nan; stroke: none; fill: #FFFFFF; fill-opacity: 0.50;"
       id="polygon90" />
    <text
       x="158.17"
       y="104.79"
       text-anchor="middle"
       style="font-size: 12.00px; font-family: &quot;Arial&quot;;"
       textLength="30.56px"
       lengthAdjust="spacingAndGlyphs"
       id="text92">3058</text>
    <text
       x="158.17"
       y="117.03"
       text-anchor="middle"
       style="font-size: 12.00px; font-family: &quot;Arial&quot;;"
       textLength="36.04px"
       lengthAdjust="spacingAndGlyphs"
       id="text94">(12%)</text>
    <polygon
       points="146.72,241.07 178.01,241.07 177.92,241.07 178.27,241.05 178.61,240.98 178.93,240.86 179.23,240.69 179.50,240.47 179.73,240.21 179.92,239.91 180.05,239.59 180.14,239.25 180.17,238.91 180.17,238.91 180.17,215.04 180.17,215.04 180.14,214.69 180.05,214.36 179.92,214.04 179.73,213.74 179.50,213.48 179.23,213.26 178.93,213.09 178.61,212.96 178.27,212.90 178.01,212.88 146.72,212.88 146.98,212.90 146.63,212.88 146.29,212.92 145.96,213.02 145.64,213.17 145.36,213.37 145.11,213.61 144.90,213.89 144.73,214.19 144.62,214.52 144.57,214.87 144.56,215.04 144.56,238.91 144.57,238.73 144.57,239.08 144.62,239.42 144.73,239.75 144.90,240.06 145.11,240.34 145.36,240.58 145.64,240.78 145.96,240.93 146.29,241.02 146.63,241.07 "
       style="stroke-width: nan; stroke: none; fill: #FFFFFF; fill-opacity: 0.50;"
       id="polygon96" />
    <text
       x="162.36"
       y="225.23"
       text-anchor="middle"
       style="font-size: 12.00px; font-family: &quot;Arial&quot;;"
       textLength="7.64px"
       lengthAdjust="spacingAndGlyphs"
       id="text98">0</text>
    <text
       x="162.36"
       y="237.47"
       text-anchor="middle"
       style="font-size: 12.00px; font-family: &quot;Arial&quot;;"
       textLength="28.40px"
       lengthAdjust="spacingAndGlyphs"
       id="text100">(0%)</text>
    <polygon
       points="235.59,314.66 266.88,314.66 266.79,314.66 267.14,314.65 267.48,314.58 267.80,314.46 268.10,314.28 268.37,314.06 268.60,313.80 268.79,313.51 268.93,313.19 269.01,312.85 269.04,312.50 269.04,312.50 269.04,288.64 269.04,288.64 269.01,288.29 268.93,287.95 268.79,287.63 268.60,287.34 268.37,287.08 268.10,286.86 267.80,286.68 267.48,286.56 267.14,286.49 266.88,286.48 235.59,286.48 235.85,286.49 235.51,286.48 235.16,286.52 234.83,286.62 234.51,286.77 234.23,286.96 233.98,287.20 233.77,287.48 233.61,287.79 233.50,288.12 233.44,288.46 233.43,288.64 233.43,312.50 233.44,312.33 233.44,312.68 233.50,313.02 233.61,313.35 233.77,313.66 233.98,313.94 234.23,314.18 234.51,314.37 234.83,314.52 235.16,314.62 235.51,314.66 "
       style="stroke-width: nan; stroke: none; fill: #FFFFFF; fill-opacity: 0.50;"
       id="polygon102" />
    <text
       x="251.23"
       y="298.82"
       text-anchor="middle"
       style="font-size: 12.00px; font-family: &quot;Arial&quot;;"
       textLength="7.64px"
       lengthAdjust="spacingAndGlyphs"
       id="text104">0</text>
    <text
       x="251.23"
       y="311.06"
       text-anchor="middle"
       style="font-size: 12.00px; font-family: &quot;Arial&quot;;"
       textLength="28.40px"
       lengthAdjust="spacingAndGlyphs"
       id="text106">(0%)</text>
    <polygon
       points="236.42,114.63 267.70,114.63 267.61,114.63 267.96,114.62 268.30,114.55 268.63,114.43 268.93,114.25 269.20,114.03 269.43,113.77 269.61,113.48 269.75,113.16 269.83,112.82 269.86,112.47 269.86,112.47 269.86,88.61 269.86,88.61 269.83,88.26 269.75,87.92 269.61,87.60 269.43,87.31 269.20,87.05 268.93,86.83 268.63,86.66 268.30,86.53 267.96,86.46 267.70,86.45 236.42,86.45 236.68,86.46 236.33,86.45 235.98,86.49 235.65,86.59 235.34,86.74 235.05,86.93 234.80,87.17 234.59,87.45 234.43,87.76 234.32,88.09 234.26,88.43 234.26,88.61 234.26,112.47 234.26,112.30 234.26,112.65 234.32,112.99 234.43,113.32 234.59,113.63 234.80,113.91 235.05,114.15 235.34,114.35 235.65,114.49 235.98,114.59 236.33,114.63 "
       style="stroke-width: nan; stroke: none; fill: #FFFFFF; fill-opacity: 0.50;"
       id="polygon108" />
    <text
       x="252.06"
       y="98.79"
       text-anchor="middle"
       style="font-size: 12.00px; font-family: &quot;Arial&quot;;"
       textLength="7.64px"
       lengthAdjust="spacingAndGlyphs"
       id="text110">0</text>
    <text
       x="252.06"
       y="111.03"
       text-anchor="middle"
       style="font-size: 12.00px; font-family: &quot;Arial&quot;;"
       textLength="28.40px"
       lengthAdjust="spacingAndGlyphs"
       id="text112">(0%)</text>
    <polygon
       points="328.80,244.70 360.08,244.70 359.99,244.69 360.34,244.68 360.68,244.61 361.01,244.49 361.31,244.31 361.58,244.09 361.81,243.83 361.99,243.54 362.13,243.22 362.21,242.88 362.24,242.54 362.24,242.54 362.24,218.67 362.24,218.67 362.21,218.32 362.13,217.98 361.99,217.66 361.81,217.37 361.58,217.11 361.31,216.89 361.01,216.72 360.68,216.59 360.34,216.52 360.08,216.51 328.80,216.51 329.06,216.52 328.71,216.51 328.36,216.55 328.03,216.65 327.72,216.80 327.43,216.99 327.18,217.23 326.97,217.51 326.81,217.82 326.70,218.15 326.64,218.49 326.64,218.67 326.64,242.54 326.64,242.36 326.64,242.71 326.70,243.05 326.81,243.38 326.97,243.69 327.18,243.97 327.43,244.21 327.72,244.41 328.03,244.55 328.36,244.65 328.71,244.69 "
       style="stroke-width: nan; stroke: none; fill: #FFFFFF; fill-opacity: 0.50;"
       id="polygon114" />
    <text
       x="344.44"
       y="228.86"
       text-anchor="middle"
       style="font-size: 12.00px; font-family: &quot;Arial&quot;;"
       textLength="7.64px"
       lengthAdjust="spacingAndGlyphs"
       id="text116">0</text>
    <text
       x="344.44"
       y="241.10"
       text-anchor="middle"
       style="font-size: 12.00px; font-family: &quot;Arial&quot;;"
       textLength="28.40px"
       lengthAdjust="spacingAndGlyphs"
       id="text118">(0%)</text>
    <polygon
       points="328.11,120.99 359.39,120.99 359.31,120.99 359.65,120.97 359.99,120.90 360.32,120.78 360.62,120.61 360.89,120.39 361.12,120.13 361.31,119.83 361.44,119.51 361.53,119.18 361.55,118.83 361.55,118.83 361.55,94.96 361.55,94.96 361.53,94.61 361.44,94.28 361.31,93.96 361.12,93.66 360.89,93.40 360.62,93.18 360.32,93.01 359.99,92.89 359.65,92.82 359.39,92.80 328.11,92.80 328.37,92.82 328.02,92.80 327.68,92.84 327.34,92.94 327.03,93.09 326.74,93.29 326.49,93.53 326.28,93.81 326.12,94.11 326.01,94.44 325.96,94.79 325.95,94.96 325.95,118.83 325.96,118.66 325.96,119.00 326.01,119.35 326.12,119.68 326.28,119.98 326.49,120.26 326.74,120.50 327.03,120.70 327.34,120.85 327.68,120.95 328.02,120.99 "
       style="stroke-width: nan; stroke: none; fill: #FFFFFF; fill-opacity: 0.50;"
       id="polygon120" />
    <text
       x="343.75"
       y="105.15"
       text-anchor="middle"
       style="font-size: 12.00px; font-family: &quot;Arial&quot;;"
       textLength="7.64px"
       lengthAdjust="spacingAndGlyphs"
       id="text122">0</text>
    <text
       x="343.75"
       y="117.39"
       text-anchor="middle"
       style="font-size: 12.00px; font-family: &quot;Arial&quot;;"
       textLength="28.40px"
       lengthAdjust="spacingAndGlyphs"
       id="text124">(0%)</text>
    <polygon
       points="183.83,166.66 222.75,166.66 222.66,166.66 223.01,166.64 223.35,166.57 223.68,166.45 223.98,166.28 224.25,166.06 224.48,165.79 224.66,165.50 224.80,165.18 224.88,164.84 224.91,164.50 224.91,164.50 224.91,140.63 224.91,140.63 224.88,140.28 224.80,139.95 224.66,139.63 224.48,139.33 224.25,139.07 223.98,138.85 223.68,138.68 223.35,138.55 223.01,138.49 222.75,138.47 183.83,138.47 184.09,138.49 183.74,138.47 183.39,138.51 183.06,138.61 182.75,138.76 182.46,138.96 182.21,139.20 182.00,139.47 181.84,139.78 181.73,140.11 181.67,140.46 181.67,140.63 181.67,164.50 181.67,164.32 181.67,164.67 181.73,165.01 181.84,165.34 182.00,165.65 182.21,165.93 182.46,166.17 182.75,166.37 183.06,166.52 183.39,166.61 183.74,166.66 "
       style="stroke-width: nan; stroke: none; fill: #FFFFFF; fill-opacity: 0.50;"
       id="polygon126" />
    <text
       x="203.29"
       y="150.82"
       text-anchor="middle"
       style="font-size: 12.00px; font-family: &quot;Arial&quot;;"
       textLength="30.56px"
       lengthAdjust="spacingAndGlyphs"
       id="text128">7860</text>
    <text
       x="203.29"
       y="163.06"
       text-anchor="middle"
       style="font-size: 12.00px; font-family: &quot;Arial&quot;;"
       textLength="36.04px"
       lengthAdjust="spacingAndGlyphs"
       id="text130">(30%)</text>
    <polygon
       points="276.30,264.27 307.58,264.27 307.50,264.27 307.84,264.25 308.18,264.18 308.51,264.06 308.81,263.88 309.08,263.66 309.31,263.40 309.49,263.11 309.63,262.79 309.71,262.45 309.74,262.11 309.74,262.11 309.74,238.24 309.74,238.24 309.71,237.89 309.63,237.55 309.49,237.24 309.31,236.94 309.08,236.68 308.81,236.46 308.51,236.29 308.18,236.16 307.84,236.09 307.58,236.08 276.30,236.08 276.56,236.09 276.21,236.08 275.87,236.12 275.53,236.22 275.22,236.37 274.93,236.57 274.68,236.81 274.47,237.08 274.31,237.39 274.20,237.72 274.15,238.07 274.14,238.24 274.14,262.11 274.15,261.93 274.15,262.28 274.20,262.62 274.31,262.95 274.47,263.26 274.68,263.54 274.93,263.78 275.22,263.98 275.53,264.13 275.87,264.22 276.21,264.27 "
       style="stroke-width: nan; stroke: none; fill: #FFFFFF; fill-opacity: 0.50;"
       id="polygon132" />
    <text
       x="291.94"
       y="248.43"
       text-anchor="middle"
       style="font-size: 12.00px; font-family: &quot;Arial&quot;;"
       textLength="7.64px"
       lengthAdjust="spacingAndGlyphs"
       id="text134">0</text>
    <text
       x="291.94"
       y="260.67"
       text-anchor="middle"
       style="font-size: 12.00px; font-family: &quot;Arial&quot;;"
       textLength="28.40px"
       lengthAdjust="spacingAndGlyphs"
       id="text136">(0%)</text>
    <polygon
       points="196.25,262.85 227.54,262.85 227.45,262.85 227.80,262.83 228.14,262.76 228.46,262.64 228.76,262.47 229.03,262.25 229.26,261.99 229.45,261.69 229.59,261.37 229.67,261.03 229.70,260.69 229.70,260.69 229.70,236.82 229.70,236.82 229.67,236.47 229.59,236.14 229.45,235.82 229.26,235.52 229.03,235.26 228.76,235.04 228.46,234.87 228.14,234.75 227.80,234.68 227.54,234.66 196.25,234.66 196.51,234.68 196.17,234.66 195.82,234.70 195.49,234.80 195.17,234.95 194.89,235.15 194.64,235.39 194.43,235.67 194.27,235.97 194.16,236.30 194.10,236.65 194.09,236.82 194.09,260.69 194.10,260.51 194.10,260.86 194.16,261.21 194.27,261.53 194.43,261.84 194.64,262.12 194.89,262.36 195.17,262.56 195.49,262.71 195.82,262.80 196.17,262.85 "
       style="stroke-width: nan; stroke: none; fill: #FFFFFF; fill-opacity: 0.50;"
       id="polygon138" />
    <text
       x="211.90"
       y="247.01"
       text-anchor="middle"
       style="font-size: 12.00px; font-family: &quot;Arial&quot;;"
       textLength="7.64px"
       lengthAdjust="spacingAndGlyphs"
       id="text140">0</text>
    <text
       x="211.90"
       y="259.25"
       text-anchor="middle"
       style="font-size: 12.00px; font-family: &quot;Arial&quot;;"
       textLength="28.40px"
       lengthAdjust="spacingAndGlyphs"
       id="text142">(0%)</text>
    <polygon
       points="285.07,166.57 316.35,166.57 316.27,166.57 316.61,166.56 316.95,166.49 317.28,166.36 317.58,166.19 317.85,165.97 318.08,165.71 318.27,165.42 318.40,165.10 318.49,164.76 318.51,164.41 318.51,164.41 318.51,140.55 318.51,140.55 318.49,140.20 318.40,139.86 318.27,139.54 318.08,139.25 317.85,138.99 317.58,138.77 317.28,138.59 316.95,138.47 316.61,138.40 316.35,138.39 285.07,138.39 285.33,138.40 284.98,138.39 284.64,138.43 284.30,138.53 283.99,138.67 283.70,138.87 283.45,139.11 283.24,139.39 283.08,139.70 282.97,140.03 282.92,140.37 282.91,140.55 282.91,164.41 282.92,164.24 282.92,164.59 282.97,164.93 283.08,165.26 283.24,165.57 283.45,165.85 283.70,166.09 283.99,166.28 284.30,166.43 284.64,166.53 284.98,166.57 "
       style="stroke-width: nan; stroke: none; fill: #FFFFFF; fill-opacity: 0.50;"
       id="polygon144" />
    <text
       x="300.71"
       y="150.73"
       text-anchor="middle"
       style="font-size: 12.00px; font-family: &quot;Arial&quot;;"
       textLength="7.64px"
       lengthAdjust="spacingAndGlyphs"
       id="text146">0</text>
    <text
       x="300.71"
       y="162.97"
       text-anchor="middle"
       style="font-size: 12.00px; font-family: &quot;Arial&quot;;"
       textLength="28.40px"
       lengthAdjust="spacingAndGlyphs"
       id="text148">(0%)</text>
    <polygon
       points="231.43,214.06 272.50,214.06 272.41,214.06 272.76,214.04 273.10,213.98 273.43,213.85 273.73,213.68 274.00,213.46 274.23,213.20 274.41,212.90 274.55,212.58 274.63,212.25 274.66,211.90 274.66,211.90 274.66,188.03 274.66,188.03 274.63,187.69 274.55,187.35 274.41,187.03 274.23,186.73 274.00,186.47 273.73,186.25 273.43,186.08 273.10,185.96 272.76,185.89 272.50,185.87 231.43,185.87 231.69,185.89 231.34,185.87 230.99,185.92 230.66,186.01 230.35,186.16 230.06,186.36 229.81,186.60 229.60,186.88 229.44,187.19 229.33,187.52 229.27,187.86 229.27,188.03 229.27,211.90 229.27,211.73 229.27,212.07 229.33,212.42 229.44,212.75 229.60,213.05 229.81,213.33 230.06,213.57 230.35,213.77 230.66,213.92 230.99,214.02 231.34,214.06 "
       style="stroke-width: nan; stroke: none; fill: #FFFFFF; fill-opacity: 0.50;"
       id="polygon150" />
    <text
       x="251.96"
       y="198.22"
       text-anchor="middle"
       style="font-size: 12.00px; font-family: &quot;Arial&quot;;"
       textLength="38.20px"
       lengthAdjust="spacingAndGlyphs"
       id="text152">14955</text>
    <text
       x="251.96"
       y="210.46"
       text-anchor="middle"
       style="font-size: 12.00px; font-family: &quot;Arial&quot;;"
       textLength="36.04px"
       lengthAdjust="spacingAndGlyphs"
       id="text154">(58%)</text>
    <text
       xml:space="preserve"
       style="font-style:normal;font-weight:normal;font-size:30px;line-height:1.25;font-family:sans-serif;fill:#000000;fill-opacity:1;stroke:none;stroke-width:0.75"
       x="419.09186"
       y="46.705494"
       id="text79877"><tspan
         sodipodi:role="line"
         id="tspan79875"
         style="stroke-width:0.75"></tspan></text>
    <text
       xml:space="preserve"
       style="font-style:normal;font-weight:normal;font-size:16px;line-height:1.25;font-family:sans-serif;fill:#000000;fill-opacity:1;stroke:none;stroke-width:0.75"
       x="377.92331"
       y="60.856007"
       id="text84699"><tspan
         sodipodi:role="line"
         id="tspan84697"
         style="font-style:normal;font-variant:normal;font-weight:bold;font-stretch:normal;font-size:16px;font-family:Arial;-inkscape-font-specification:'Arial Bold';stroke-width:0.75"
         x="377.92331"
         y="60.856007">Cas-OFFinder</tspan></text>
    <text
       xml:space="preserve"
       style="font-style:normal;font-weight:normal;font-size:16px;line-height:1.25;font-family:sans-serif;fill:#000000;fill-opacity:1;stroke:none;stroke-width:0.75"
       x="304.9509"
       y="26.69528"
       id="text105053"><tspan
         sodipodi:role="line"
         id="tspan105051"
         style="font-style:normal;font-variant:normal;font-weight:bold;font-stretch:normal;font-size:16px;font-family:Arial;-inkscape-font-specification:'Arial Bold';stroke-width:0.75"
         x="304.9509"
         y="26.69528">CRISPRitz</tspan></text>
    <text
       xml:space="preserve"
       style="font-style:normal;font-weight:normal;font-size:16px;line-height:1.25;font-family:sans-serif;fill:#000000;fill-opacity:1;stroke:none;stroke-width:0.75"
       x="118.40273"
       y="21.436024"
       id="text112217"><tspan
         sodipodi:role="line"
         id="tspan112215"
         style="font-style:normal;font-variant:normal;font-weight:bold;font-stretch:normal;font-size:16px;font-family:Arial;-inkscape-font-specification:'Arial Bold';stroke-width:0.75"
         x="118.40273"
         y="21.436024">SWOffinder</tspan></text>
    <text
       xml:space="preserve"
       style="font-style:normal;font-weight:normal;font-size:16px;line-height:1.25;font-family:sans-serif;fill:#000000;fill-opacity:1;stroke:none;stroke-width:0.75"
       x="39.617519"
       y="61.157207"
       id="text118495"><tspan
         sodipodi:role="line"
         id="tspan118493"
         style="font-style:normal;font-variant:normal;font-weight:bold;font-stretch:normal;font-size:16px;font-family:Arial;-inkscape-font-specification:'Arial Bold';stroke-width:0.75"
         x="39.617519"
         y="61.157207">CHOPOFF</tspan></text>
  </g>
  <g
     clip-path="url(#cpMC4wMHw1MDQuMDB8MC4wMHwzNjAuMDA=)"
     id="g158" />
</svg>
